<?xml version="1.0" encoding="UTF-8"?>
<svg id="Layer_2" data-name="Layer 2" xmlns="http://www.w3.org/2000/svg" viewBox="0 0 325.01 37.12">
  <defs>
    <style>
      .cls-1 {
        fill: #fd4238;
      }

      .cls-2 {
        fill: #161a19;
      }
    </style>
  </defs>
  <g id="Layer_1-2" data-name="Layer 1">
    <g>
      <g id="Path_226" data-name="Path 226">
        <path class="cls-1" d="m96.07,28.43c3.63-.12,6.54,1.09,6.42,2.68s-3.23,2.95-6.87,3.07l-89.3,2.93c-3.53.12-6.44-1.05-6.32-2.64s3.24-2.99,6.77-3.11l89.3-2.93Z"/>
      </g>
      <g>
        <path class="cls-2" d="m5.73,13.82v-.14c0-.3.25-.55.55-.55h3.26c.3,0,.55.25.55.55v.27c0,1.2.99,2.05,2.38,2.05s2.35-.88,2.35-1.97-.66-1.7-1.94-2.05l-2.33-.63c-2.71-.71-4.32-2.76-4.32-5.55,0-3.34,2.65-5.8,6.37-5.8s6.26,2.27,6.26,5.58v.19c0,.3-.25.55-.55.55h-3.15c-.3,0-.55-.25-.55-.55v-.19c0-1.01-.77-1.67-2.03-1.67s-2.08.68-2.08,1.67.63,1.56,2.02,1.94l2.13.63c2.9.85,4.46,2.65,4.46,5.61,0,3.77-2.82,6.16-6.62,6.16s-6.78-2.41-6.78-6.1Z"/>
        <path class="cls-2" d="m22.18,18.99V.93c0-.3.25-.55.55-.55h3.09c.3,0,.55.25.55.55v18.06c0,.3-.25.55-.55.55h-3.09c-.3,0-.55-.25-.55-.55Z"/>
        <path class="cls-2" d="m31.09,17.48c-1.23-1.61-1.5-4.1-1.5-7.52s.27-5.91,1.5-7.52c1.07-1.5,2.9-2.43,5.42-2.43,3.72,0,6.54,2.32,6.54,5.99,0,.3-.25.55-.55.55h-3.15c-.3,0-.58-.25-.6-.55-.06-1.07-.85-1.81-2.24-1.81-1.01,0-1.78.38-2.19,1.23-.44.93-.44,2.57-.44,4.54s0,3.67.44,4.57c.41.9,1.18,1.4,2.27,1.4,1.48,0,2.3-.93,2.3-2.41v-.6c0-.16-.11-.27-.27-.27h-1.75c-.3,0-.55-.25-.55-.55v-2.79c0-.3.25-.55.55-.55h5.63c.3,0,.55.25.55.55v3.15c0,5.36-2.32,7.47-6.54,7.47-2.52,0-4.35-.93-5.42-2.44Z"/>
        <path class="cls-2" d="m46.28,18.99V.93c0-.3.25-.55.55-.55h3.39c.38,0,.55.22.66.49l3.64,9.28c.08.22.41.19.41-.05V.93c0-.3.25-.55.55-.55h3.09c.3,0,.55.25.55.55v18.06c0,.3-.25.55-.55.55h-3.39c-.38,0-.55-.22-.66-.49l-3.61-9.27c-.11-.22-.44-.19-.44.05v9.16c0,.3-.25.55-.55.55h-3.09c-.3,0-.55-.25-.55-.55Z"/>
        <path class="cls-2" d="m68.53,13.46V.93c0-.3.25-.55.55-.55h3.09c.3,0,.55.25.55.55v12.56c0,1.34.9,2.24,2.24,2.24s2.27-.9,2.27-2.24V.93c0-.3.25-.55.55-.55h3.09c.3,0,.55.25.55.55v12.53c0,4.51-2.98,6.46-6.46,6.46s-6.43-1.94-6.43-6.46Z"/>
        <path class="cls-2" d="m85.03,18.99V.93c0-.3.25-.55.55-.55h6.02c3.61,0,6.1,2.52,6.1,6.13s-2.49,6.1-6.1,6.1h-2.11c-.16,0-.27.11-.27.27v6.1c0,.3-.25.55-.55.55h-3.09c-.3,0-.55-.25-.55-.55Zm4.46-10.48h2.05c1.07,0,1.86-.88,1.86-2s-.79-2.03-1.86-2.03h-2.05c-.16,0-.27.11-.27.27v3.47c0,.16.11.27.27.27Z"/>
        <path class="cls-2" d="m106.07,18.99V.93c0-.3.25-.55.55-.55h9.49c.3,0,.55.25.55.55v2.98c0,.3-.25.55-.55.55h-5.58c-.16,0-.27.11-.27.27v2.95c0,.16.11.27.27.27h5.31c.3,0,.55.25.55.55v3.01c0,.3-.25.55-.55.55h-5.31c-.16,0-.27.11-.27.27v6.65c0,.3-.25.55-.55.55h-3.09c-.3,0-.55-.25-.55-.55Z"/>
        <path class="cls-2" d="m120.38,17.48c-1.2-1.59-1.48-4.1-1.48-7.52s.27-5.94,1.48-7.52c1.07-1.5,2.9-2.43,5.42-2.43s4.32.93,5.39,2.43c1.2,1.59,1.48,4.1,1.48,7.52s-.27,5.94-1.48,7.52c-1.07,1.5-2.87,2.44-5.39,2.44s-4.35-.93-5.42-2.44Zm3.23-2.98c.41.85,1.15,1.23,2.19,1.23s1.75-.38,2.16-1.23c.44-.93.44-2.57.44-4.54s0-3.61-.44-4.54c-.41-.85-1.15-1.23-2.16-1.23s-1.78.38-2.19,1.23c-.41.93-.41,2.57-.41,4.54s0,3.61.41,4.54Z"/>
        <path class="cls-2" d="m135.9,18.99V.93c0-.3.25-.55.55-.55h5.96c3.8,0,6.15,2.63,6.15,6.13,0,2.22-1.04,3.75-2.57,4.95-.38.33-.36.49-.19.9l2.65,6.24c.22.49.06.93-.46.93h-3.09c-.41,0-.6-.16-.71-.46l-2.63-6.32c-.08-.16-.16-.25-.36-.25h-.85c-.16,0-.27.11-.27.27v6.21c0,.3-.25.55-.55.55h-3.09c-.3,0-.55-.25-.55-.55Zm4.46-10.48h2c1.12,0,1.92-.88,1.92-2,0-1.2-.79-2.03-1.92-2.03h-2c-.16,0-.27.11-.27.27v3.47c0,.16.11.27.27.27Z"/>
        <path class="cls-2" d="m157.35,18.99V.93c0-.3.25-.55.55-.55h9.82c.3,0,.55.25.55.55v3.01c0,.3-.25.55-.55.55h-5.91c-.16,0-.27.11-.27.27v2.68c0,.16.11.27.27.27h5.69c.3,0,.55.25.55.55v3.01c0,.3-.25.55-.55.55h-5.69c-.16,0-.27.11-.27.27v3.06c0,.16.11.27.27.27h6.02c.3,0,.55.25.55.55v3.01c0,.3-.25.55-.55.55h-9.93c-.3,0-.55-.25-.55-.55Z"/>
        <path class="cls-2" d="m170.08,18.79l5.14-18c.08-.27.27-.41.52-.41h4.13c.25,0,.44.14.52.41l5.09,18c.08.33-.08.74-.49.74h-3.39c-.25,0-.44-.14-.52-.41l-.88-2.93c-.06-.25-.14-.38-.38-.38h-4.16c-.19,0-.27.08-.33.3l-.82,3.01c-.08.27-.27.41-.52.41h-3.39c-.44,0-.6-.41-.52-.74Zm6.46-6.98h2.49c.16,0,.3-.14.25-.36l-1.29-5.31c-.05-.25-.36-.25-.44,0l-1.26,5.31c-.05.22.08.36.25.36Z"/>
        <path class="cls-2" d="m187.62,18.99V.93c0-.3.25-.55.55-.55h5.96c3.8,0,6.16,2.63,6.16,6.13,0,2.22-1.04,3.75-2.57,4.95-.38.33-.36.49-.19.9l2.65,6.24c.22.49.05.93-.46.93h-3.09c-.41,0-.6-.16-.71-.46l-2.63-6.32c-.08-.16-.16-.25-.36-.25h-.85c-.16,0-.27.11-.27.27v6.21c0,.3-.25.55-.55.55h-3.09c-.3,0-.55-.25-.55-.55Zm4.46-10.48h2c1.12,0,1.92-.88,1.92-2,0-1.2-.79-2.03-1.92-2.03h-2c-.16,0-.27.11-.27.27v3.47c0,.16.11.27.27.27Z"/>
        <path class="cls-2" d="m203.27,18.99V.93c0-.3.25-.55.55-.55h3.09c.3,0,.55.25.55.55v14.14c0,.16.11.27.27.27h5.96c.3,0,.55.25.55.55v3.09c0,.3-.25.55-.55.55h-9.88c-.3,0-.55-.25-.55-.55Z"/>
        <path class="cls-2" d="m217.85,18.99v-5.47l-5.31-12.34c-.19-.44.14-.79.49-.79h3.31c.25,0,.41.11.52.41l2.9,7.19c.06.16.33.16.38,0l2.9-7.19c.11-.3.27-.41.52-.41h3.31c.36,0,.69.36.49.79l-5.31,12.34v5.47c0,.3-.25.55-.55.55h-3.12c-.3,0-.55-.25-.55-.55Z"/>
        <path class="cls-2" d="m233.81,18.79l5.14-18c.08-.27.27-.41.52-.41h4.13c.25,0,.44.14.52.41l5.09,18c.08.33-.08.74-.49.74h-3.39c-.25,0-.44-.14-.52-.41l-.88-2.93c-.06-.25-.14-.38-.38-.38h-4.16c-.19,0-.27.08-.33.3l-.82,3.01c-.08.27-.27.41-.52.41h-3.39c-.44,0-.6-.41-.52-.74Zm6.46-6.98h2.49c.16,0,.3-.14.25-.36l-1.29-5.31c-.05-.25-.36-.25-.44,0l-1.26,5.31c-.05.22.08.36.25.36Z"/>
        <path class="cls-2" d="m252.06,17.48c-1.23-1.59-1.51-4.1-1.51-7.52s.27-5.94,1.51-7.52c1.07-1.53,2.87-2.43,5.39-2.43,3.8,0,6.54,2.24,6.54,6.37,0,.3-.25.55-.55.55h-3.17c-.3,0-.57-.25-.57-.55,0-1.23-.82-2.19-2.24-2.19-1.01,0-1.78.38-2.16,1.23-.44.93-.44,2.57-.44,4.54s0,3.61.44,4.54c.41.85,1.15,1.23,2.16,1.23,1.42,0,2.24-.9,2.24-2.19,0-.3.27-.55.57-.55h3.17c.3,0,.55.25.55.55,0,4.08-2.68,6.38-6.54,6.38-2.52,0-4.35-.9-5.39-2.44Z"/>
        <path class="cls-2" d="m267.9,17.48c-1.23-1.59-1.5-4.1-1.5-7.52s.27-5.94,1.5-7.52c1.07-1.53,2.87-2.43,5.39-2.43,3.8,0,6.54,2.24,6.54,6.37,0,.3-.25.55-.55.55h-3.17c-.3,0-.57-.25-.57-.55,0-1.23-.82-2.19-2.24-2.19-1.01,0-1.78.38-2.16,1.23-.44.93-.44,2.57-.44,4.54s0,3.61.44,4.54c.41.85,1.15,1.23,2.16,1.23,1.42,0,2.24-.9,2.24-2.19,0-.3.27-.55.57-.55h3.17c.3,0,.55.25.55.55,0,4.08-2.68,6.38-6.54,6.38-2.52,0-4.35-.9-5.39-2.44Z"/>
        <path class="cls-2" d="m282.68,18.99V.93c0-.3.25-.55.55-.55h9.82c.3,0,.55.25.55.55v3.01c0,.3-.25.55-.55.55h-5.91c-.16,0-.27.11-.27.27v2.68c0,.16.11.27.27.27h5.69c.3,0,.55.25.55.55v3.01c0,.3-.25.55-.55.55h-5.69c-.16,0-.27.11-.27.27v3.06c0,.16.11.27.27.27h6.02c.3,0,.55.25.55.55v3.01c0,.3-.25.55-.55.55h-9.93c-.3,0-.55-.25-.55-.55Z"/>
        <path class="cls-2" d="m295.92,13.82v-.14c0-.3.25-.55.55-.55h3.26c.3,0,.55.25.55.55v.27c0,1.2.99,2.05,2.38,2.05s2.35-.88,2.35-1.97-.66-1.7-1.94-2.05l-2.33-.63c-2.71-.71-4.32-2.76-4.32-5.55,0-3.34,2.65-5.8,6.37-5.8s6.26,2.27,6.26,5.58v.19c0,.3-.25.55-.55.55h-3.15c-.3,0-.55-.25-.55-.55v-.19c0-1.01-.77-1.67-2.03-1.67s-2.08.68-2.08,1.67.63,1.56,2.02,1.94l2.13.63c2.9.85,4.46,2.65,4.46,5.61,0,3.77-2.82,6.16-6.62,6.16s-6.79-2.41-6.79-6.1Z"/>
        <path class="cls-2" d="m311.6,13.82v-.14c0-.3.25-.55.55-.55h3.26c.3,0,.55.25.55.55v.27c0,1.2.99,2.05,2.38,2.05s2.35-.88,2.35-1.97-.66-1.7-1.94-2.05l-2.33-.63c-2.71-.71-4.32-2.76-4.32-5.55,0-3.34,2.65-5.8,6.37-5.8s6.26,2.27,6.26,5.58v.19c0,.3-.25.55-.55.55h-3.14c-.3,0-.55-.25-.55-.55v-.19c0-1.01-.77-1.67-2.02-1.67s-2.08.68-2.08,1.67.63,1.56,2.02,1.94l2.14.63c2.9.85,4.46,2.65,4.46,5.61,0,3.77-2.82,6.16-6.62,6.16s-6.79-2.41-6.79-6.1Z"/>
      </g>
    </g>
  </g>
</svg>