<svg xmlns="http://www.w3.org/2000/svg" width="568.93" height="257.029" viewBox="0 0 568.93 257.029">
  <g id="Group_199" data-name="Group 199" transform="translate(2069.719 -1260.465)">
    <path id="Path_80" data-name="Path 80" d="M387.3,52.837a3.485,3.485,0,0,1-3.206-2.49S371.063-.919,319.809.013C273.53.854,256.066,44.68,256.066,44.68a1.625,1.625,0,0,0,1.619,2.39h36.859a2.965,2.965,0,0,0,2.867-2.555s1.984-17.154,23.416-17.529c26.061-.458,26.839,23.341,26.839,23.341a2.483,2.483,0,0,1-2.488,2.573l-14.922.015a1.393,1.393,0,0,0-1.327,2.253l12.028,21.758a4.823,4.823,0,0,0,3.816,2.251h38.386a4.847,4.847,0,0,0,3.825-2.246l12.2-21.864c.689-1.235.1-2.245-1.319-2.242Z" transform="translate(-2105.467 1260.465)" fill="#f7f7ea"/>
    <path id="Path_81" data-name="Path 81" d="M342.536,93.952a3.044,3.044,0,0,0-2.922,2.548s-2.66,19.351-23.368,19.715c-25.9.454-26.833-25.87-26.833-25.87a2.475,2.475,0,0,1,2.481-2.573l15.195-.015c1.414,0,2.006-1.013,1.315-2.246L296.4,64.1a4.859,4.859,0,0,0-3.83-2.243H254.186a4.762,4.762,0,0,0-3.795,2.262l-11.6,21.464a1.406,1.406,0,0,0,1.349,2.26l9.657-.012a3.453,3.453,0,0,1,3.187,2.494s13.263,53.787,64.28,52.859c44.978-.818,63.4-46.848,63.4-46.848a1.622,1.622,0,0,0-1.617-2.387Z" transform="translate(-2103.039 1251.823)" fill="#f7f7ea"/>
    <path id="Path_82" data-name="Path 82" d="M10.264,232.156c2.354,0,4.708-.015,7.06,0,2.076.017,2.818.877,2.354,2.9-.939,4.092,1.4,6.729,4.676,7.968a12.326,12.326,0,0,0,9.733-.3A7.556,7.556,0,0,0,35.8,229.716a26.068,26.068,0,0,0-3.691-2.412c-2.778-1.567-5.6-3.048-8.4-4.584a26.989,26.989,0,0,1-10.674-10.2c-2.232-3.861-2.783-8.119-2.62-12.487a25.45,25.45,0,0,1,5-14.9,24.952,24.952,0,0,1,14.758-9.247c6.87-1.579,13.749-1.608,20.416.9,7.119,2.679,12.456,7.33,15.109,14.675a18.571,18.571,0,0,1,.734,9.025,2.522,2.522,0,0,1-2.491,2.162c-4.671.031-9.345.057-14.015-.01-2.185-.031-2.856-.963-2.525-3.113a4.986,4.986,0,0,0-2.935-5.712,11.945,11.945,0,0,0-10-.413,6.837,6.837,0,0,0-2.331,11.267,18.81,18.81,0,0,0,3.989,2.874c3.345,1.916,6.8,3.633,10.139,5.566a24.415,24.415,0,0,1,9.9,9.923c2.084,4.061,2.516,8.435,2.272,12.892A26.174,26.174,0,0,1,52.995,251a26.6,26.6,0,0,1-15.744,9.62,37.965,37.965,0,0,1-20.572-.7C8.517,257.181,2.8,251.9.6,243.317A22.949,22.949,0,0,1,.3,234.333a2.587,2.587,0,0,1,2.585-2.173c2.459-.015,4.918,0,7.377,0" transform="translate(-2069.719 1236.047)" fill="#f7f7ea"/>
    <path id="Path_83" data-name="Path 83" d="M168.952,203.311q1.9,0,3.792,0a2.412,2.412,0,0,1,2.387,1.381c.817,1.6,1.591,1.859,3.248,1.1,1.908-.876,3.728-1.968,5.683-2.713,11.256-4.293,21.61,1.265,24.774,12.658,1.149,4.136.956,8.341.6,12.538a70.988,70.988,0,0,1-4.378,19.612,28.853,28.853,0,0,1-8.624,12.486c-4.794,3.871-10.331,5.281-16.412,4.965a17.525,17.525,0,0,1-7.981-2.356c-.06-.035-.124-.065-.187-.1-2.838-1.4-4.11-.751-4.728,2.345q-1.718,8.6-3.483,17.184a3.1,3.1,0,0,1-3.2,2.745c-4.248.051-8.5.044-12.746.005-1.641-.015-2.357-.982-2.023-2.571q5.736-27.275,11.479-54.549,2.312-10.992,4.616-21.986a3.111,3.111,0,0,1,3.291-2.749c.035,0,.071,0,.106,0h3.792m3.86,34.907c-.15,4.5,1.09,6.91,3.693,8.318a8.988,8.988,0,0,0,5.128.755,5.466,5.466,0,0,0,4.1-1.876,19.885,19.885,0,0,0,2.67-4.357,39.541,39.541,0,0,0,3.092-13.446,7.449,7.449,0,0,0-2.024-5.884c-2.746-2.8-9.853-3.239-12.461,1.78a40.6,40.6,0,0,0-4.193,14.71" transform="translate(-2090.057 1232.297)" fill="#f7f7ea"/>
    <path id="Path_84" data-name="Path 84" d="M631.856,239.888q-7.482,0-14.964,0c-1.744,0-2.248.381-2.32,2.109-.2,4.822,2.036,8.716,7.677,8.859a18.754,18.754,0,0,0,4.864-.617,5.783,5.783,0,0,0,3.661-2.979,4.492,4.492,0,0,1,4.213-2.461c3.583-.021,7.166-.027,10.749,0,1.705.014,2.456.908,1.93,2.389-2.456,6.907-6.348,12.648-13.265,15.818a28.092,28.092,0,0,1-13.867,2.282,31.168,31.168,0,0,1-6.518-1.04c-8.54-2.483-13.867-8.307-15.177-16.936-1.864-12.284.015-24.107,7.3-34.521a25.163,25.163,0,0,1,19.8-11.02,29.43,29.43,0,0,1,12.252,1.348c7.46,2.737,11.877,8.16,13.61,15.841,1.258,5.575.673,11.066-.715,16.538-1.044,4.11-1.32,4.387-5.53,4.387h-13.7m-5.032-13.664c2.6,0,5.2.015,7.793-.006,1.449-.012,1.961-.55,1.987-1.976a8.2,8.2,0,0,0-8.534-8.541c-6.48.064-9.757,4.58-10.214,8.9-.142,1.344.127,1.613,1.491,1.618,2.492.009,4.985,0,7.477,0" transform="translate(-2153.282 1232.292)" fill="#f7f7ea"/>
    <path id="Path_85" data-name="Path 85" d="M261.886,239.887q-7.482,0-14.964,0c-1.749,0-2.293.454-2.34,2.207-.137,4.985,2.249,8.648,7.895,8.808a9.561,9.561,0,0,0,5.691-1.135,8.867,8.867,0,0,0,2.6-2.522,4.768,4.768,0,0,1,4.24-2.447c3.583-.019,7.166-.026,10.749,0,1.723.013,2.462.889,1.935,2.38-2.446,6.913-6.342,12.65-13.255,15.824a28.031,28.031,0,0,1-13.866,2.285,31.5,31.5,0,0,1-6.617-1.076c-8.453-2.473-13.736-8.249-15.063-16.79-1.914-12.323-.021-24.173,7.27-34.624a25.146,25.146,0,0,1,19.8-11.026,29.39,29.39,0,0,1,12.252,1.345c7.5,2.753,11.921,8.21,13.637,15.94,1.223,5.508.542,10.906-.674,16.341-1.027,4.591-2.3,4.528-5.691,4.5-4.53-.04-9.062-.01-13.594-.01m-4.948-13.663c2.563,0,5.126.012,7.689-.005,1.31-.009,1.94-.459,1.97-1.543a8.237,8.237,0,0,0-2.618-6.82c-3.017-2.663-6.5-2.663-9.98-1.383-3.674,1.352-5.61,4.27-6.112,8.121-.173,1.332.12,1.624,1.469,1.629,2.528.009,5.055,0,7.583,0" transform="translate(-2101.597 1232.292)" fill="#f7f7ea"/>
    <path id="Path_86" data-name="Path 86" d="M98.159,203.58c2,0,4-.01,6.006,0,2.081.015,2.816.9,2.393,2.886q-3.624,17.049-7.262,34.095c-.854,4,1.266,6.808,5.324,7.023,4.846.256,8.047-2.2,9.063-6.926q3.713-17.3,7.438-34.592a3.035,3.035,0,0,1,3.112-2.47q6.426-.071,12.854,0c1.715.021,2.386,1.056,2.022,2.766q-5.863,27.52-11.715,55.045a3.129,3.129,0,0,1-3.159,2.558c-3.055.043-6.111,0-9.166.011a2.451,2.451,0,0,1-2.438-1.636c-.9-2.03-1.948-2.368-3.888-1.281-1.651.924-3.268,1.906-4.913,2.842a15.615,15.615,0,0,1-8.128,1.746c-9.333-.12-14.255-6.651-15.311-14.368-.575-4.2.286-8.223,1.163-12.271q3.56-16.416,7.062-32.847a3.1,3.1,0,0,1,3.327-2.578c2.072-.026,4.144-.006,6.217-.006" transform="translate(-2080.923 1232.027)" fill="#f7f7ea"/>
    <path id="Path_87" data-name="Path 87" d="M537.767,227.483c-2.037,0-4.074.009-6.111,0-1.694-.01-2.165-.473-2.264-2.169-.2-3.348-2.031-5.386-5.4-5.776a15.438,15.438,0,0,0-4.082.052,6.4,6.4,0,0,0-4.628,3.316c-2.17,3.686-3.119,7.775-3.922,11.9a39.849,39.849,0,0,0-.6,4.9c-.337,4.97,2.949,8.251,7.916,7.97,3.759-.213,5.836-1.855,7.205-5.692.711-1.994,1.26-2.411,3.383-2.419q6.057-.026,12.116,0c1.89.006,2.418.7,2.07,2.576a33.568,33.568,0,0,1-4.769,12.581,22.861,22.861,0,0,1-16.215,10.237,29.463,29.463,0,0,1-14.054-.831c-8.725-2.885-14.026-8.874-15.359-17.967-1.248-8.519.528-16.731,3.455-24.718a35.305,35.305,0,0,1,7.058-12.083,23.455,23.455,0,0,1,14.733-7.352c5.217-.679,10.387-.534,15.319,1.5,7.471,3.079,11.753,8.71,12.912,16.684a31.564,31.564,0,0,1,.225,4.4c.008,2.042-.87,2.883-2.881,2.889-2.037.005-4.073,0-6.111,0" transform="translate(-2138.542 1232.296)" fill="#f7f7ea"/>
    <path id="Path_88" data-name="Path 88" d="M401.133,227.488c-2.037,0-4.074.007-6.111,0-1.8-.009-2.33-.532-2.373-2.3a5.251,5.251,0,0,0-4.462-5.441,16.225,16.225,0,0,0-4.8-.185,6.287,6.287,0,0,0-4.773,3.271c-2.116,3.552-3.08,7.5-3.866,11.485a36.074,36.074,0,0,0-.658,5.839c-.146,4.77,3,7.751,7.8,7.528,3.8-.176,6.044-1.887,7.307-5.827a2.85,2.85,0,0,1,2.966-2.281c4.284-.02,8.569-.034,12.853,0,1.487.013,2.034.769,1.763,2.28-1.148,6.4-3.4,12.266-8.185,16.923a22.878,22.878,0,0,1-12.554,6.133,29.738,29.738,0,0,1-14.163-.738c-8.623-2.772-13.844-8.6-15.485-17.523-1.02-5.548-.274-11.045.853-16.489a48.937,48.937,0,0,1,6.833-17.279c4.666-7.08,11.366-10.57,19.74-11.113a28.887,28.887,0,0,1,13.025,1.707A20,20,0,0,1,409.695,219.4a32.088,32.088,0,0,1,.386,5.231c.018,1.98-.961,2.853-2.943,2.857-2,0-4,0-6,0" transform="translate(-2119.44 1232.291)" fill="#f7f7ea"/>
    <path id="Path_89" data-name="Path 89" d="M567.17,260.049c-2,0-4,.007-6,0-2.13-.009-2.836-.922-2.4-2.994q5.646-26.595,11.278-53.193,2.744-12.939,5.49-25.877a3.171,3.171,0,0,1,3.171-2.563q6.321-.053,12.64,0c1.8.016,2.545,1.02,2.182,2.731q-6.38,30.087-12.754,60.176-2.012,9.5-4.024,19a3.221,3.221,0,0,1-3.368,2.719c-2.072.017-4.143,0-6.215,0" transform="translate(-2147.761 1235.962)" fill="#f7f7ea"/>
    <path id="Path_90" data-name="Path 90" d="M305.851,263.984c-2.037,0-4.074.009-6.112,0-2-.012-2.745-.909-2.331-2.853q5.191-24.392,10.4-48.781.645-3.03,1.307-6.056a3.013,3.013,0,0,1,3.114-2.693q4.424-.086,8.85,0c1.667.03,2.341.859,2.377,2.546a13.332,13.332,0,0,0,.256,2.4,1.765,1.765,0,0,0,2.836,1.3,13.774,13.774,0,0,0,1.856-1.368c2.653-2.1,5.341-4.218,8.83-4.6a62.561,62.561,0,0,1,7.676-.247c1.6.022,2.217,1.06,1.87,2.672-.933,4.346-1.872,8.692-2.787,13.041a3.173,3.173,0,0,1-3.4,2.886c-1.931.044-3.87-.052-5.792.083-5.831.41-10.253,2.976-12.47,8.6a33.482,33.482,0,0,0-1.493,5.128c-1.852,8.444-3.645,16.9-5.465,25.352a3.017,3.017,0,0,1-3.192,2.591c-2.107.026-4.215.006-6.322.006" transform="translate(-2111.251 1232.028)" fill="#f7f7ea"/>
    <path id="Path_91" data-name="Path 91" d="M480.954,203.589c-4.636-.017-9.271,0-13.907-.009a3.191,3.191,0,0,0-3.061,1.815q-7.076,13.138-14.193,26.252a2.233,2.233,0,0,1-.5.791,1.712,1.712,0,0,1-1.093.384c-.251-.039-.531-.485-.626-.8a13.475,13.475,0,0,1-.306-1.757q-1.952-12.134-3.9-24.27c-.327-2.057-.68-2.409-2.787-2.41q-5.953-.005-11.9,0a7.042,7.042,0,0,0-1.256.1,2.787,2.787,0,0,0-2.418,3.245c.108.9.307,1.794.48,2.688q2.963,15.283,5.933,30.564h13.557l-12.232,21.292q-5.757,10.278-11.431,20.6c-1.114,2.017-.3,3.37,2,3.376,2.142.006,4.284,0,6.426,0,2.213,0,4.425-.019,6.637.006a3.22,3.22,0,0,0,3.058-1.827q10.54-18.612,21.118-37.2,11.187-19.695,22.372-39.39c1.179-2.076.406-3.444-1.971-3.452" transform="translate(-2128.507 1232.025)" fill="#f7f7ea"/>
  </g>
</svg>
