<?xml version="1.0" encoding="UTF-8"?>
<svg id="Layer_2" data-name="Layer 2" xmlns="http://www.w3.org/2000/svg" viewBox="0 0 537.87 1008.13">
  <defs>
    <style>
      .cls-1 {
        fill: #eae8de;
      }

      .cls-2 {
        fill: #fff;
      }

      .cls-3 {
        fill: #14c39a;
      }
    </style>
  </defs>
  <g id="Layer_1-2" data-name="Layer 1">
    <g>
      <g>
        <path class="cls-2" d="m522.75,42.14c0-8.32-8.28-15.07-18.5-15.07-4.59,0-8.8,1.37-12.03,3.63.01-.29.02-.58.02-.87,0-10.22-8.28-18.5-18.5-18.5-6.02,0-11.37,2.88-14.75,7.34-3.37-1.16-7.21-1.82-11.28-1.82-8.68,0-16.29,2.99-20.59,7.48-9.88,2.03-17.05,8.07-17.05,15.22,0,3.59,1.81,6.9,4.85,9.56-2.25,2.42-3.54,5.26-3.54,8.29,0,8.81,10.88,15.94,24.3,15.94,2.2,0,4.34-.2,6.36-.56,4.44,4.35,11.47,7.17,19.39,7.17,7.25,0,13.75-2.36,18.2-6.09,4.15,2.16,9.4,3.46,15.11,3.46,13.42,0,24.3-7.14,24.3-15.94,0-2.78-1.08-5.38-2.98-7.66,4.08-2.76,6.67-6.93,6.67-11.58Z"/>
        <path class="cls-3" d="m461.45,81.63c-7.78,0-14.99-2.56-19.94-7.05-1.91.29-3.86.44-5.82.44-14.33,0-25.98-7.91-25.98-17.62,0-2.87,1-5.66,2.92-8.17-2.77-2.86-4.23-6.18-4.23-9.69,0-7.71,7.16-14.4,17.88-16.76,4.84-4.78,12.8-7.62,21.43-7.62,3.74,0,7.33.52,10.7,1.55,3.84-4.5,9.36-7.06,15.33-7.06,10.44,0,19.06,7.97,20.08,18.15,3.13-1.57,6.74-2.41,10.43-2.41,11.13,0,20.18,7.51,20.18,16.75,0,4.53-2.17,8.79-6,11.93,1.52,2.28,2.31,4.78,2.31,7.32,0,9.72-11.66,17.62-25.98,17.62-5.4,0-10.53-1.09-14.9-3.16-4.85,3.69-11.49,5.79-18.41,5.79Zm-18.83-10.65l.62.61c4.27,4.19,11.08,6.69,18.22,6.69,6.56,0,12.8-2.08,17.12-5.7l.86-.72.99.52c4.04,2.11,9.13,3.27,14.33,3.27,12.48,0,22.63-6.4,22.63-14.27,0-2.31-.87-4.52-2.59-6.58l-1.19-1.42,1.54-1.04c3.77-2.56,5.94-6.27,5.94-10.2,0-7.38-7.55-13.39-16.82-13.39-4.07,0-8,1.18-11.07,3.32l-2.8,1.96.16-3.41c.01-.26.02-.52.02-.79,0-9.28-7.55-16.82-16.82-16.82-5.31,0-10.2,2.43-13.41,6.67l-.73.97-1.15-.4c-3.29-1.13-7-1.73-10.73-1.73-7.96,0-15.21,2.6-19.38,6.96l-.36.38-.51.11c-9.25,1.9-15.7,7.48-15.7,13.58,0,2.98,1.48,5.85,4.28,8.3l1.3,1.14-1.18,1.27c-2.03,2.18-3.1,4.65-3.1,7.15,0,7.87,10.15,14.27,22.63,14.27,2.05,0,4.09-.18,6.07-.53l.85-.15Z"/>
      </g>
      <path class="cls-3" d="m437.28,40.38c-.22-.35-.36-.69-.82-.7-.46-.01-.65.3-.86.65-.3.49-.26,1.02-.29,1.56-.19,3.15.08,6.29.46,9.41.23,1.89.59,3.77,1.3,5.56.1.24.19.48.34.69.46.69,1.2.67,1.61-.04.18-.31.29-.66.4-1,.43-1.43.52-2.9.34-4.37-.34-2.81-.73-5.62-1.11-8.43,0,0-.18-1.45-1.36-3.33Z"/>
      <path class="cls-3" d="m470.77,44.19c.15-.65.57-1,1.11-1.04.56-.04.94.23,1.25.85.33.65.46,1.33.55,2.06.2,1.65.39,3.3.74,4.92.61,2.83,1.33,5.63,2,8.44.11.45.18.9.26,1.35.03.2.05.4.06.6.01.73-.27,1.18-.82,1.36-.54.17-1.05-.06-1.42-.69-.36-.62-.68-1.26-1.01-1.9-1.79-3.76-2.6-7.75-3.04-11.85,0,0-.29-1.5.33-4.11Z"/>
      <path class="cls-3" d="m460.63,49.34c.39,2.04-.01,3.96-.99,5.75-.37.67-.8,1.33-1.31,1.91-1.21,1.35-2.76,1.84-4.54,1.59-.91-.12-1.66-.55-2.2-1.31-.58-.46-1.62-2.58-2.08-4.04-.37-1.18-.4-2.39-.06-3.59.18-.64.46-.89.85-.83.39.06.62.38.57,1.04-.2,2.33.9,4.18,2.11,6,.38.57.92.8,1.59.77.98-.05,1.81-.44,2.39-1.24,1.1-1.53,1.79-3.19,1.47-5.14-.05-.31-.11-.61-.13-.92-.08-1.04.61-1.61,1.61-1.34,0,0,.59.24.72,1.34Z"/>
    </g>
    <g>
      <path class="cls-3" d="m61.28,337.29l-47.89,11.57c-.8.19-1.61-.3-1.8-1.1l-4.07-16.83c-2.6-10.74,3.17-18.66,12.6-20.94,5.73-1.39,10.23.06,14.57,3.08,1.19.79,1.59.54,2.5-.14l14.57-10.28c1.24-.91,2.5-.76,2.86.69l2.44,10.09c.26,1.09-.05,1.7-.71,2.17l-14.56,9.97c-.45.34-.48.58-.39.94l.23.94c.11.44.47.66.9.55l15.6-3.77c.8-.19,1.61.3,1.8,1.1l2.46,10.16c.19.8-.3,1.61-1.1,1.8Zm-32.07-6.84l-1.05-4.35c-.54-2.25-2.55-3.23-4.79-2.68-2.25.54-3.59,2.32-3.04,4.58l1.05,4.35c.11.43.47.66.9.55l6.38-1.54c.44-.1.66-.46.55-.9Z"/>
      <path class="cls-3" d="m52.35,296.88l-49.19,2.8c-.82.05-1.53-.59-1.58-1.41L0,270.47c-.05-.82.59-1.53,1.41-1.58l10.14-.58c.82-.05,1.53.59,1.58,1.41l.86,15.13c.03.45.34.73.79.7l4.55-.26c.45-.03.73-.34.7-.79l-.83-14.53c-.05-.82.59-1.53,1.41-1.58l10.14-.58c.82-.05,1.53.59,1.58,1.41l.83,14.53c.02.45.34.73.79.7l5.29-.3c.45-.03.73-.34.7-.79l-.88-15.43c-.05-.82.59-1.53,1.41-1.58l10.14-.58c.82-.05,1.53.59,1.58,1.41l1.6,28.1c.05.82-.59,1.53-1.41,1.58Z"/>
      <path class="cls-3" d="m50.59,259.55l-48.87-6.25c-.81-.1-1.4-.86-1.29-1.67l1.36-10.66c.14-1.11.87-1.54,1.57-1.68l21.59-5.21c.55-.16.66-1.05-.08-1.14l-20.21-2.59c-.82-.1-1.4-.86-1.29-1.67l1.33-10.37c.1-.81.86-1.4,1.67-1.29l48.87,6.26c.81.1,1.4.86,1.29,1.67l-1.37,10.66c-.14,1.11-.87,1.54-1.57,1.68l-21.59,5.21c-.55.16-.66,1.04.08,1.14l20.22,2.59c.81.1,1.4.86,1.29,1.67l-1.33,10.37c-.1.82-.86,1.4-1.67,1.29Z"/>
      <path class="cls-3" d="m59.26,209.74l-34.88-11.01c-.43-.14-.8.06-.94.49l-2.58,8.19c-.25.78-1.09,1.22-1.87.97l-9.97-3.15c-.78-.25-1.22-1.09-.97-1.87l9.66-30.61c.25-.78,1.09-1.22,1.87-.98l9.97,3.15c.78.25,1.22,1.09.97,1.87l-2.58,8.19c-.13.43.06.8.49.94l34.88,11.01c.78.25,1.22,1.09.97,1.87l-3.15,9.97c-.25.78-1.09,1.22-1.87.97Z"/>
      <path class="cls-3" d="m126.16,103.7l-29.23-39.66c-.49-.66-.34-1.6.32-2.09l13.94-10.27c8.89-6.56,18.43-4.31,24.19,3.5,3.5,4.75,3.91,9.45,2.8,14.63-.27,1.4.12,1.67,1.1,2.25l15.12,9.45c1.32.79,1.67,2.01.47,2.9l-8.35,6.16c-.9.66-1.59.61-2.27.19l-14.84-9.56c-.49-.29-.71-.21-1.02,0l-.78.58c-.36.27-.42.68-.16,1.04l9.52,12.92c.49.66.35,1.6-.32,2.09l-8.41,6.2c-.66.49-1.6.34-2.09-.32Zm-6.12-32.21l3.61-2.66c1.86-1.37,1.99-3.6.61-5.46-1.37-1.86-3.53-2.4-5.4-1.03l-3.61,2.66c-.36.27-.42.68-.16,1.04l3.9,5.29c.27.36.68.42,1.04.16Z"/>
      <path class="cls-3" d="m159.94,79.81l-21.61-44.28c-.36-.74-.05-1.64.69-2l25.02-12.21c.74-.36,1.64-.05,2,.69l4.45,9.12c.36.74.05,1.64-.69,2l-13.62,6.65c-.4.2-.54.59-.34,1l2,4.09c.2.4.59.54,1,.34l13.08-6.39c.74-.36,1.64-.05,2,.69l4.45,9.12c.36.74.05,1.64-.69,2l-13.08,6.39c-.4.2-.54.6-.34,1l2.33,4.76c.2.4.6.54,1,.34l13.89-6.78c.74-.36,1.64-.05,2,.69l4.45,9.12c.36.74.05,1.64-.69,2l-25.29,12.35c-.74.36-1.64.05-2-.69Z"/>
      <path class="cls-3" d="m200.76,61.98l-10.37-35.08c-.13-.43-.5-.63-.93-.5l-8.23,2.43c-.79.23-1.62-.22-1.86-1.01l-2.96-10.02c-.23-.79.22-1.62,1.01-1.86l30.78-9.1c.79-.23,1.62.22,1.86,1.01l2.96,10.02c.23.79-.22,1.62-1.01,1.86l-8.23,2.43c-.43.13-.63.5-.5.93l10.37,35.08c.23.79-.22,1.62-1.01,1.86l-10.02,2.96c-.79.23-1.62-.22-1.85-1.01Z"/>
      <path class="cls-3" d="m225.25,38.87l-3.67-33.4c-.09-.82.51-1.56,1.32-1.65l10.39-1.14c.82-.09,1.56.51,1.65,1.32l3.68,33.47c.29,2.67,2.3,4.55,5.27,4.23,3.04-.33,4.67-2.62,4.38-5.29l-3.68-33.47c-.09-.82.5-1.56,1.32-1.65l10.39-1.14c.82-.09,1.56.5,1.65,1.32l3.67,33.4c1.42,12.91-6.46,19.11-16.26,20.19-9.65,1.06-18.69-3.28-20.11-16.19Z"/>
      <path class="cls-3" d="m269.92,50.48l4.05-49.1c.07-.82.79-1.43,1.61-1.37l17.26,1.42c11.01.91,16.72,8.87,15.92,18.54-.48,5.88-3.27,9.69-7.5,12.86-1.12.88-1.01,1.34-.65,2.42l5.19,17.06c.48,1.46-.07,2.62-1.55,2.49l-10.34-.85c-1.12-.09-1.6-.58-1.84-1.35l-4.89-16.96c-.18-.54-.4-.63-.77-.66l-.97-.08c-.45-.04-.77.24-.81.68l-1.32,16c-.07.82-.79,1.43-1.61,1.36l-10.42-.86c-.82-.07-1.43-.79-1.36-1.61Zm16.57-28.3l4.46.37c2.31.19,3.86-1.4,4.05-3.71.19-2.31-1.08-4.13-3.39-4.32l-4.47-.37c-.45-.04-.77.24-.81.68l-.54,6.55c-.04.45.24.77.68.81Z"/>
      <path class="cls-3" d="m311.03,54.42l13.4-47.42c.22-.79,1.05-1.25,1.84-1.03l10.35,2.93c1.08.3,1.4,1.09,1.43,1.8l1.97,22.13c.07.56.93.81,1.14.09l5.54-19.61c.22-.79,1.05-1.25,1.84-1.03l10.06,2.84c.79.22,1.25,1.05,1.03,1.84l-13.4,47.42c-.22.79-1.05,1.25-1.84,1.03l-10.35-2.92c-1.08-.3-1.4-1.09-1.43-1.8l-1.97-22.13c-.07-.56-.94-.81-1.14-.09l-5.55,19.61c-.22.79-1.05,1.25-1.84,1.03l-10.06-2.84c-.79-.22-1.25-1.05-1.03-1.84Z"/>
      <path class="cls-3" d="m433.03,124.39l39.35-29.65c.66-.49,1.6-.36,2.09.29l10.42,13.83c6.65,8.82,4.51,18.38-3.24,24.22-4.71,3.55-9.41,4.01-14.6,2.96-1.4-.25-1.67.14-2.24,1.13l-9.28,15.22c-.77,1.33-2,1.69-2.9.5l-6.24-8.29c-.67-.89-.63-1.58-.21-2.27l9.4-14.94c.28-.49.21-.72-.02-1.01l-.58-.77c-.27-.36-.69-.42-1.05-.15l-12.82,9.66c-.65.49-1.6.36-2.09-.29l-6.29-8.35c-.49-.66-.36-1.6.29-2.09Zm32.15-6.46l2.7,3.58c1.39,1.85,3.62,1.95,5.47.56,1.85-1.39,2.37-3.56.97-5.41l-2.7-3.58c-.27-.36-.69-.42-1.05-.15l-5.25,3.95c-.36.27-.42.69-.15,1.05Z"/>
      <path class="cls-3" d="m457.29,157.92l44.04-22.1c.73-.37,1.64-.07,2,.67l12.49,24.89c.37.73.07,1.64-.67,2l-9.07,4.55c-.73.37-1.64.07-2-.66l-6.8-13.55c-.2-.4-.6-.53-1-.33l-4.07,2.04c-.4.2-.53.6-.33,1l6.53,13.01c.37.73.07,1.64-.67,2l-9.07,4.55c-.73.37-1.64.07-2-.66l-6.53-13.01c-.2-.4-.6-.53-1-.33l-4.74,2.38c-.4.2-.53.6-.33,1l6.93,13.81c.37.73.07,1.64-.67,2l-9.07,4.55c-.73.37-1.64.07-2-.66l-12.63-25.16c-.37-.73-.07-1.64.67-2Z"/>
      <path class="cls-3" d="m473.61,191.54l47.27-13.89c.79-.23,1.62.22,1.85,1.01l4.91,16.69c2.93,9.96-1.78,18.57-11.59,21.46-9.81,2.88-18.41-1.75-21.36-11.77l-1.33-4.51c-.13-.43-.5-.63-.93-.51l-15.04,4.42c-.79.23-1.62-.22-1.85-1.01l-2.95-10.03c-.23-.79.22-1.62,1.01-1.85Zm32.36,5.27l1.28,4.37c.61,2.08,2.68,3.03,4.9,2.37,2.22-.65,3.45-2.57,2.83-4.65l-1.28-4.37c-.13-.43-.5-.63-.93-.51l-6.3,1.85c-.43.13-.63.5-.51.93Z"/>
      <path class="cls-3" d="m484.24,230.4l48.98-5.3c.82-.09,1.56.51,1.65,1.32l3,27.68c.09.82-.51,1.56-1.32,1.65l-10.09,1.09c-.82.09-1.56-.51-1.64-1.32l-1.63-15.07c-.05-.44-.38-.71-.82-.66l-4.53.49c-.45.05-.71.38-.66.82l1.57,14.47c.09.82-.51,1.56-1.32,1.65l-10.09,1.09c-.82.09-1.56-.51-1.65-1.32l-1.57-14.47c-.05-.44-.38-.71-.82-.66l-5.27.57c-.45.05-.71.38-.66.82l1.66,15.36c.09.82-.51,1.56-1.32,1.65l-10.09,1.09c-.82.09-1.56-.51-1.64-1.32l-3.03-27.98c-.09-.82.51-1.56,1.32-1.64Z"/>
      <path class="cls-3" d="m488.69,263.78l47.96,17.24c.73.28,1.06.83,1.01,1.5l-1.03,13.7c-.05.67-.46,1.16-1.22,1.33l-50,9.79c-.91.16-2-.3-1.91-1.49l.86-11.47c.05-.67.46-1.16,1.22-1.33l6.69-1.37c.69-.17,1.15-.36,1.2-1.03l.71-9.46c.05-.6-.16-.84-.82-1.03l-6.65-2.22c-.73-.28-1.06-.83-1.01-1.5l.86-11.46c.09-1.19,1.23-1.48,2.11-1.19Zm17.97,20.89l-.35,4.62c-.03.45.31.85.92.74l11.94-1.5c.68-.1.75-.99.09-1.19l-11.58-3.27c-.58-.19-.98.15-1.02.6Z"/>
      <path class="cls-3" d="m482.62,313.9l35.56,8.57c.44.1.8-.12.9-.55l2.01-8.35c.19-.8,1-1.29,1.8-1.1l10.16,2.45c.8.19,1.29,1,1.1,1.8l-7.52,31.21c-.19.8-1,1.29-1.8,1.1l-10.16-2.45c-.8-.19-1.29-1-1.1-1.8l2.01-8.35c.11-.43-.12-.8-.55-.9l-35.56-8.58c-.8-.19-1.29-1-1.1-1.8l2.45-10.16c.19-.8,1-1.29,1.8-1.1Z"/>
    </g>
    <g>
      <path class="cls-3" d="m103.24,929.83c-4.99-1.88-10.13-1.85-15.27-.67-4.46,1.03-8.23,3.24-11.04,6.92-2.51,3.29-3.59,7.08-3.74,11.15-.12,3.27.29,6.45,1.96,9.34,1.91,3.31,4.65,5.79,7.99,7.63,2.09,1.15,4.21,2.26,6.28,3.43.96.54,1.91,1.11,2.76,1.8,3.47,2.83,2.79,7.88-1.29,9.74-2.39,1.09-4.87,1.14-7.28.22-2.45-.93-4.2-2.9-3.5-5.96.35-1.52-.21-2.16-1.76-2.17-1.76-.01-3.52,0-5.28,0-1.84,0-3.68,0-5.52,0-.97,0-1.8.69-1.93,1.63-.31,2.25-.35,4.5.22,6.72,1.65,6.42,5.93,10.37,12.03,12.42,5.04,1.7,10.23,1.66,15.39.52,4.73-1.04,8.76-3.34,11.78-7.2,2.59-3.31,3.85-7.13,4.07-11.28.18-3.33-.14-6.61-1.7-9.65-1.67-3.26-4.29-5.62-7.41-7.42-2.49-1.45-5.08-2.73-7.59-4.16-1.06-.61-2.13-1.29-2.98-2.15-2.66-2.66-1.74-7.04,1.74-8.43,2.51-1,5.05-.88,7.48.31,1.78.87,2.49,2.34,2.2,4.27-.25,1.61.25,2.31,1.89,2.33,3.49.05,6.99.03,10.49,0,.95,0,1.74-.71,1.86-1.62.32-2.29.25-4.55-.55-6.75-1.98-5.5-5.98-8.97-11.3-10.98Z"/>
      <path class="cls-3" d="m183.46,946.69c-1.46.56-2.82,1.37-4.25,2.03-1.24.57-1.82.38-2.43-.82-.39-.76-.99-1.03-1.79-1.03-.95,0-1.89,0-2.84,0s-1.89,0-2.84,0c-.03,0-.05,0-.08,0-1.39.05-2.18.7-2.46,2.06-1.16,5.48-2.3,10.97-3.45,16.45-2.86,13.6-5.73,27.21-8.59,40.81-.25,1.19.29,1.91,1.51,1.92,3.18.03,6.36.03,9.54,0,1.31-.02,2.13-.76,2.4-2.05.88-4.28,1.75-8.57,2.61-12.86.46-2.32,1.41-2.8,3.54-1.75.05.02.09.05.14.07,1.85,1.07,3.83,1.65,5.97,1.76,4.55.24,8.69-.82,12.28-3.71,3.07-2.48,5.05-5.71,6.45-9.34,1.82-4.73,2.84-9.64,3.28-14.67.27-3.14.41-6.29-.45-9.38-2.37-8.52-10.11-12.68-18.53-9.47Zm5.56,18.35c-.18,3.48-.96,6.85-2.31,10.06-.49,1.16-1.22,2.26-2,3.26-.74.95-1.87,1.31-3.06,1.4-1.32.1-2.63.09-3.84-.57-1.95-1.05-2.88-2.85-2.76-6.22.31-3.31,1.2-7.28,3.14-11.01,1.95-3.75,7.27-3.43,9.32-1.33,1.21,1.24,1.6,2.76,1.51,4.4Z"/>
      <path class="cls-3" d="m473.87,958.57c-1.3-5.75-4.6-9.8-10.18-11.85-2.95-1.08-6.05-1.22-9.17-1.01-6.24.42-11.27,3.17-14.81,8.24-5.45,7.79-6.85,16.64-5.46,25.83.98,6.46,4.97,10.81,11.35,12.67,1.57.46,3.24.67,4.88.78,3.58.25,7.08-.2,10.37-1.71,5.17-2.37,8.09-6.67,9.92-11.83.39-1.11-.17-1.78-1.44-1.79-2.68-.02-5.36-.02-8.04,0-1.39,0-2.46.58-3.15,1.84-.6,1.1-1.53,1.93-2.74,2.23-1.18.29-2.43.49-3.64.46-4.22-.11-5.9-3.02-5.74-6.63.05-1.29.43-1.58,1.74-1.58,3.73,0,7.46,0,11.19,0,3.42,0,6.83,0,10.25,0,3.15,0,3.36-.21,4.14-3.28,1.04-4.09,1.48-8.2.54-12.37Zm-12.86,5.43c-1.94.02-3.89,0-5.83,0-1.86,0-3.73,0-5.59,0-1.02,0-1.22-.21-1.11-1.21.34-3.23,2.79-6.61,7.64-6.66,3.68-.04,6.45,2.71,6.38,6.39-.02,1.07-.4,1.47-1.49,1.48Z"/>
      <path class="cls-3" d="m236.67,946.72c-2.95-1.08-6.05-1.22-9.17-1.01-6.24.42-11.27,3.17-14.81,8.25-5.45,7.82-6.87,16.68-5.44,25.9.99,6.39,4.95,10.71,11.27,12.56,1.59.47,3.29.69,4.95.81,3.58.25,7.08-.2,10.37-1.71,5.17-2.37,8.09-6.67,9.92-11.84.39-1.12-.16-1.77-1.45-1.78-2.68-.02-5.36-.02-8.04,0-1.39,0-2.4.62-3.17,1.83-.48.74-1.2,1.4-1.94,1.89-1.27.83-2.77.89-4.26.85-4.22-.12-6.01-2.86-5.91-6.59.04-1.31.44-1.65,1.75-1.65,3.73,0,7.46,0,11.19,0,3.39,0,6.78-.02,10.17,0,2.54.02,3.49.07,4.26-3.36.91-4.07,1.42-8.1.5-12.23-1.28-5.78-4.59-9.87-10.2-11.92Zm-1.21,16.13c-.02.81-.49,1.15-1.47,1.16-1.92.01-3.83,0-5.75,0-1.89,0-3.78,0-5.67,0-1.01,0-1.23-.22-1.1-1.22.37-2.88,1.82-5.06,4.57-6.08,2.6-.96,5.21-.96,7.47,1.04,1.54,1.36,2.01,3.14,1.96,5.1Z"/>
      <path class="cls-3" d="m156.26,946.88c-3.21-.04-6.41-.04-9.62,0-1.25.01-2.09.75-2.33,1.85-1.86,8.63-3.71,17.25-5.56,25.88-.76,3.54-3.15,5.37-6.78,5.18-3.04-.16-4.62-2.26-3.98-5.25,1.81-8.5,3.63-17,5.43-25.51.32-1.49-.23-2.15-1.79-2.16-1.5-.01-3,0-4.49,0-1.55,0-3.1-.02-4.65,0-1.39.02-2.23.7-2.49,1.93-1.76,8.19-3.51,16.39-5.28,24.57-.66,3.03-1.3,6.03-.87,9.18.79,5.77,4.47,10.66,11.45,10.75,2.12.03,4.19-.23,6.08-1.31,1.23-.7,2.44-1.43,3.68-2.13,1.45-.81,2.23-.56,2.91.96.36.81.93,1.23,1.82,1.22,2.29,0,4.57.02,6.86,0,1.25-.02,2.12-.79,2.36-1.91,2.92-13.73,5.84-27.45,8.76-41.18.27-1.28-.23-2.05-1.51-2.07Z"/>
      <path class="cls-3" d="m400.18,947.01c-3.69-1.52-7.56-1.63-11.46-1.12-4.3.56-8.04,2.27-11.02,5.5-2.43,2.63-4.06,5.72-5.28,9.04-2.19,5.98-3.52,12.12-2.58,18.49,1,6.8,4.96,11.28,11.49,13.44,3.44,1.14,6.98,1.18,10.51.62,5.12-.82,9.24-3.28,12.13-7.66,1.89-2.87,2.94-6.06,3.57-9.41.26-1.4-.13-1.92-1.55-1.93-3.02,0-6.04-.01-9.06,0-1.59,0-2,.32-2.53,1.81-1.02,2.87-2.58,4.1-5.39,4.26-3.72.21-6.17-2.24-5.92-5.96.08-1.23.21-2.46.45-3.67.6-3.09,1.31-6.15,2.93-8.91.79-1.35,1.93-2.25,3.46-2.48,1-.15,2.05-.16,3.05-.04,2.52.29,3.89,1.82,4.04,4.32.07,1.27.43,1.62,1.69,1.62,1.52,0,3.05,0,4.57,0,1.52,0,3.05,0,4.57,0,1.51,0,2.16-.63,2.16-2.16,0-1.1-.01-2.21-.17-3.29-.87-5.97-4.07-10.18-9.66-12.48Z"/>
      <path class="cls-3" d="m323.66,975.7c.2-1.13-.21-1.7-1.32-1.71-3.21-.03-6.41-.02-9.62,0-1.15,0-1.85.54-2.22,1.71-.95,2.95-2.63,4.23-5.47,4.36-3.59.17-5.94-2.06-5.84-5.63.04-1.46.21-2.93.49-4.37.59-2.98,1.31-5.93,2.89-8.59.82-1.37,2.01-2.27,3.57-2.45,1.18-.13,2.42-.08,3.59.14,2.12.41,3.29,1.93,3.34,4.07.03,1.32.43,1.71,1.78,1.72,1.52,0,3.05,0,4.57,0,1.5,0,3,0,4.49,0,1.48,0,2.22-.66,2.2-2.14-.01-1.31-.06-2.63-.29-3.91-1.01-5.72-4.23-9.71-9.61-11.91-3.13-1.28-6.41-1.49-9.74-1.28-6.27.41-11.28,3.02-14.77,8.31-2.6,3.95-4.16,8.33-5.11,12.93-.84,4.07-1.4,8.19-.64,12.34,1.23,6.67,5.13,11.04,11.58,13.11,3.48,1.12,7.04,1.14,10.6.55,3.57-.59,6.76-2.02,9.39-4.59,3.58-3.48,5.27-7.87,6.12-12.66Z"/>
      <path class="cls-3" d="m434.62,928.74c-3.15-.03-6.3-.03-9.46,0-1.21.01-2.13.79-2.37,1.92-1.37,6.45-2.74,12.91-4.11,19.36-2.81,13.27-5.62,26.53-8.44,39.8-.33,1.55.2,2.23,1.79,2.24,1.5,0,2.99,0,4.49,0,1.55,0,3.1,0,4.65,0,1.34-.01,2.25-.74,2.52-2.03,1.01-4.74,2.01-9.48,3.01-14.21,3.18-15.01,6.36-30.01,9.54-45.02.27-1.28-.28-2.03-1.63-2.04Z"/>
      <path class="cls-3" d="m284.23,946.9c-1.91-.03-3.84-.02-5.74.18-2.61.29-4.62,1.87-6.61,3.44-.45.36-.89.75-1.39,1.02-1.03.56-1.89.16-2.12-.97-.12-.59-.18-1.19-.19-1.79-.03-1.26-.53-1.88-1.78-1.9-2.21-.04-4.41-.04-6.62,0-1.3.03-2.05.72-2.33,2.01-.33,1.51-.66,3.02-.98,4.53-2.59,12.16-5.19,24.33-7.78,36.49-.31,1.45.24,2.13,1.74,2.13,1.52,0,3.05,0,4.57,0,1.58,0,3.15.01,4.73,0,1.31-.02,2.12-.69,2.39-1.94,1.36-6.32,2.7-12.65,4.09-18.97.28-1.3.63-2.6,1.12-3.84,1.66-4.21,4.97-6.13,9.33-6.43,1.44-.1,2.89-.03,4.33-.06,1.47-.03,2.24-.72,2.55-2.16.68-3.25,1.39-6.5,2.09-9.76.26-1.21-.2-1.98-1.4-2Z"/>
      <path class="cls-3" d="m342.81,974.23s.45,0,.59.33c.22.38-.12.85-.12.85,0,0-5.65,9.83-8.47,14.75-2.87,5.13-5.71,10.27-8.55,15.41-.83,1.51-.22,2.52,1.5,2.53,1.6,0,3.21,0,4.81,0,1.66,0,3.31-.01,4.97,0,1.06.01,1.77-.45,2.29-1.37,5.26-9.28,10.53-18.56,15.8-27.83,5.58-9.82,11.16-19.64,16.74-29.47.88-1.55.3-2.58-1.47-2.58-3.47-.01-6.94,0-10.4,0-1.04,0-1.79.42-2.29,1.36-3.53,6.55-7.08,13.09-10.62,19.64-.11.21-.2.47-.37.59-.23.16-.56.33-.82.29-.19-.03-.4-.36-.47-.6-.13-.42-.16-.87-.23-1.31-.97-6.05-1.95-12.1-2.92-18.16-.24-1.54-.51-1.8-2.08-1.8-2.97,0-5.94,0-8.91,0-.31,0-.63.02-.94.07-1.25.23-1.96,1.17-1.81,2.43.08.67.23,1.34.36,2.01,1.33,6.84,2.65,13.68,3.98,20.51.08.42.16.84.24,1.26.16.46.55,1.01,1.47,1.04"/>
      <path class="cls-3" d="m478.55,985.63c0-1.4,0-2.81,0-4.21,0-.22.1-.33.33-.33.02,0,.03,0,.05,0,1.02,0,2.03,0,3.05,0,.46,0,.92.04,1.36.19,1.02.35,1.73,1.01,1.98,2.08.2.83,0,1.58-.56,2.23-.24.28-.52.52-.83.73-.3.2-.3.23-.13.54.49.93.99,1.86,1.48,2.8.04.08.07.17.08.26.01.13-.07.22-.2.25-.03,0-.06.01-.1.01-.5,0-1,0-1.5,0-.19,0-.32-.09-.42-.27-.5-.96-1-1.92-1.5-2.89-.06-.11-.13-.16-.25-.15-.2,0-.4,0-.61,0-.14,0-.17.04-.17.18,0,.93,0,1.86,0,2.8,0,.27-.15.34-.34.34-.47,0-.93,0-1.4,0-.07,0-.14-.03-.2-.05-.09-.04-.13-.12-.13-.22,0-.15,0-.3,0-.45,0-1.27,0-2.54,0-3.81Zm4.43-1.06c.31-.3.34-.79.07-1.12-.23-.28-.55-.42-.91-.43-.44-.01-.89,0-1.33,0-.15,0-.19.04-.19.19,0,.26,0,.51,0,.77,0,.26,0,.53,0,.79,0,.14.03.17.17.17"/>
      <path class="cls-3" d="m481.68,993.32c-4.24,0-7.69-3.45-7.69-7.69s3.45-7.69,7.69-7.69,7.69,3.45,7.69,7.69-3.45,7.69-7.69,7.69Zm0-14.29c-3.64,0-6.59,2.96-6.59,6.59s2.96,6.59,6.59,6.59,6.59-2.96,6.59-6.59-2.96-6.59-6.59-6.59Z"/>
    </g>
    <g>
      <path class="cls-3" d="m532.11,525.21l-35.76.05c-4.79,0-9.67-3.79-10.85-8.43,0,0-44.13-173.61-217.69-170.45-156.72,2.85-215.85,151.26-215.85,151.26-1.77,4.45.7,8.09,5.49,8.09h124.82c4.79,0,9.16-3.89,9.71-8.65,0,0,6.72-58.09,79.29-59.36,88.25-1.55,90.88,79.04,90.88,79.04.16,4.79-3.63,8.71-8.42,8.71l-50.53.05c-4.79,0-6.81,3.44-4.5,7.63l40.73,73.68c2.32,4.19,8.13,7.62,12.92,7.62h129.98c4.79,0,10.62-3.42,12.95-7.61l41.3-74.04c2.33-4.18.32-7.6-4.47-7.59Z"/>
      <path class="cls-3" d="m476.61,635.22h-123.63c-4.79,0-9.24,3.88-9.89,8.63,0,0-9.01,65.53-79.13,66.76-87.7,1.54-90.86-87.6-90.86-87.6-.17-4.79,3.61-8.71,8.4-8.71l51.46-.05c4.79,0,6.79-3.43,4.45-7.61l-40.64-72.49c-2.34-4.18-8.18-7.6-12.97-7.6H53.8c-4.79,0-10.57,3.45-12.85,7.66L1.66,606.89c-2.28,4.21-.22,7.66,4.57,7.65l32.7-.04c4.79,0,9.65,3.79,10.79,8.45,0,0,44.91,182.14,217.67,179,152.31-2.77,214.69-158.64,214.69-158.64,1.78-4.45-.68-8.09-5.47-8.09Z"/>
    </g>
    <path class="cls-3" d="m92.54,102.61c-1.44-1.4-17.75,2.49-17.75,2.49l-11.33,3.43c-.64.19-.77.73-.29,1.2l2.07,1.99h0s1.52,1.47,1.52,1.47c0,0,.01.01.02.02l2.25,2.18c-15.81,9.48-25.19,31.55-24.56,33.22.63,1.67,4.29,4.4,6.87,5.9,2.58,1.49,8.48,3.89,9.94.43,4.61-10.98,19.82-27.93,19.82-27.93l5.08,4.89c.48.46,1.02.32,1.19-.33l3.05-11.35s3.54-16.21,2.1-17.6Z"/>
    <path class="cls-3" d="m432.25,69.62l-3.98-11.15c-.22-.63-.77-.73-1.21-.23l-1.89,2.17h0s-1.38,1.59-1.38,1.59c0,0-.01.01-.02.02l-2.06,2.36c-10.24-15.32-32.74-23.62-34.38-22.91-1.64.71-4.19,4.5-5.55,7.15-1.37,2.65-3.47,8.66.06,9.95,11.19,4.07,28.87,18.43,28.87,18.43l-4.64,5.31c-.44.5-.27,1.03.39,1.17l11.48,2.5s16.36,2.74,17.68,1.23c1.32-1.51-3.35-17.6-3.35-17.6Z"/>
    <path class="cls-3" d="m480.19,400.36h0s-1.61-1.36-1.61-1.36c0,0-.01-.01-.02-.02l-2.4-2.01h0c15.11-10.55,22.94-33.22,22.2-34.84-.75-1.62-4.59-4.1-7.27-5.41-2.68-1.31-8.73-3.29-9.94.26-3.84,11.28-17.84,29.24-17.84,29.24l-5.41-4.53c-.51-.43-1.04-.24-1.17.41l-2.26,11.53s-2.41,16.41-.87,17.7c1.54,1.29,17.53-3.71,17.53-3.71l11.06-4.21c.63-.24.72-.78.2-1.21l-2.2-1.85Z"/>
    <path class="cls-3" d="m85.06,404.23c-9.34-7.39-21.6-26.58-21.6-26.58l6.08-3.58c.58-.34.58-.9,0-1.24l-10.11-5.98s-14.66-7.75-16.4-6.74c-1.73,1.02-2.36,17.76-2.36,17.76l.27,11.83c.02.67.5.94,1.07.6l2.48-1.46h.01s1.81-1.08,1.81-1.08c0,0,.02,0,.03-.01l2.7-1.59c4.9,17.77,23.64,32.72,25.42,32.56,1.78-.16,5.39-2.95,7.52-5.04s6.02-7.13,3.08-9.46Z"/>
    <g>
      <path class="cls-3" d="m108.07,862.2v-25.47c0-.42.35-.77.77-.77h8.41c5.36,0,8.68,3.7,8.68,8.64,0,3.13-1.47,5.29-3.63,6.99-.54.46-.5.69-.27,1.27l3.74,8.8c.31.69.08,1.31-.66,1.31h-4.36c-.58,0-.85-.23-1-.66l-3.71-8.91c-.12-.23-.23-.35-.5-.35h-1.2c-.23,0-.39.15-.39.39v8.76c0,.42-.35.77-.77.77h-4.36c-.43,0-.77-.35-.77-.77Zm6.29-14.78h2.82c1.58,0,2.7-1.23,2.7-2.82,0-1.7-1.12-2.86-2.7-2.86h-2.82c-.23,0-.39.15-.39.39v4.9c0,.23.15.39.39.39Z"/>
      <path class="cls-3" d="m130.14,862.2v-25.47c0-.42.35-.77.77-.77h13.85c.42,0,.77.35.77.77v4.24c0,.42-.35.77-.77.77h-8.34c-.23,0-.39.15-.39.39v3.78c0,.23.15.39.39.39h8.03c.42,0,.77.35.77.77v4.24c0,.42-.35.77-.77.77h-8.03c-.23,0-.39.15-.39.39v4.32c0,.23.15.39.39.39h8.49c.43,0,.77.35.77.77v4.24c0,.42-.35.77-.77.77h-14.01c-.43,0-.77-.35-.77-.77Z"/>
      <path class="cls-3" d="m150.16,862.2v-25.47c0-.42.35-.77.77-.77h4.78c.54,0,.77.31.93.69l5.13,13.08c.12.31.58.27.58-.08v-12.93c0-.42.35-.77.77-.77h4.36c.42,0,.77.35.77.77v25.47c0,.42-.35.77-.77.77h-4.79c-.54,0-.77-.31-.93-.69l-5.09-13.08c-.15-.31-.62-.27-.62.08v12.93c0,.42-.35.77-.77.77h-4.36c-.43,0-.77-.35-.77-.77Z"/>
      <path class="cls-3" d="m177.25,862.2v-19.95c0-.23-.15-.39-.39-.39h-4.71c-.43,0-.77-.35-.77-.77v-4.36c0-.42.35-.77.77-.77h16.13c.43,0,.77.35.77.77v4.36c0,.42-.35.77-.77.77h-4.71c-.23,0-.39.15-.39.39v19.95c0,.42-.35.77-.77.77h-4.4c-.42,0-.77-.35-.77-.77Z"/>
      <path class="cls-3" d="m188.17,861.93l7.26-25.39c.12-.39.39-.58.73-.58h5.83c.35,0,.62.19.73.58l7.18,25.39c.12.46-.12,1.04-.69,1.04h-4.79c-.35,0-.62-.19-.73-.58l-1.24-4.13c-.08-.35-.19-.54-.54-.54h-5.87c-.27,0-.39.12-.46.43l-1.16,4.24c-.12.39-.39.58-.73.58h-4.79c-.62,0-.85-.58-.73-1.04Zm9.11-9.84h3.51c.23,0,.42-.19.35-.5l-1.81-7.49c-.08-.35-.5-.35-.62,0l-1.78,7.49c-.08.31.12.5.35.5Z"/>
      <path class="cls-3" d="m212.91,862.2v-25.47c0-.42.35-.77.77-.77h4.36c.42,0,.77.35.77.77v19.95c0,.23.15.39.39.39h8.41c.42,0,.77.35.77.77v4.36c0,.42-.35.77-.77.77h-13.93c-.43,0-.77-.35-.77-.77Z"/>
      <path class="cls-3" d="m241.15,860.08c-1.7-2.24-2.08-5.79-2.08-10.61s.39-8.37,2.08-10.61c1.51-2.12,4.09-3.43,7.64-3.43s6.1,1.31,7.6,3.43c1.7,2.24,2.08,5.79,2.08,10.61s-.39,8.37-2.08,10.61c-1.51,2.12-4.05,3.43-7.6,3.43s-6.14-1.31-7.64-3.43Zm4.55-4.21c.58,1.2,1.62,1.74,3.09,1.74s2.47-.54,3.05-1.74c.62-1.31.62-3.63.62-6.41s0-5.09-.62-6.41c-.58-1.2-1.62-1.74-3.05-1.74s-2.51.54-3.09,1.74c-.58,1.31-.58,3.63-.58,6.41s0,5.09.58,6.41Z"/>
      <path class="cls-3" d="m263.03,862.2v-25.47c0-.42.35-.77.77-.77h4.78c.54,0,.77.31.93.69l5.13,13.08c.12.31.58.27.58-.08v-12.93c0-.42.35-.77.77-.77h4.36c.42,0,.77.35.77.77v25.47c0,.42-.35.77-.77.77h-4.79c-.54,0-.77-.31-.93-.69l-5.09-13.08c-.15-.31-.62-.27-.62.08v12.93c0,.42-.35.77-.77.77h-4.36c-.43,0-.77-.35-.77-.77Z"/>
      <path class="cls-3" d="m293.47,854.91v-.19c0-.42.35-.77.77-.77h4.59c.42,0,.77.35.77.77v.39c0,1.7,1.39,2.89,3.36,2.89s3.32-1.23,3.32-2.78-.93-2.39-2.74-2.89l-3.28-.89c-3.82-1-6.1-3.9-6.1-7.83,0-4.71,3.74-8.18,8.99-8.18s8.84,3.2,8.84,7.87v.27c0,.42-.35.77-.77.77h-4.44c-.42,0-.77-.35-.77-.77v-.27c0-1.43-1.08-2.35-2.86-2.35s-2.93.96-2.93,2.35.89,2.2,2.86,2.74l3.01.89c4.09,1.2,6.29,3.74,6.29,7.91,0,5.33-3.97,8.68-9.34,8.68s-9.57-3.4-9.57-8.61Z"/>
      <path class="cls-3" d="m316.63,862.2v-25.47c0-.42.35-.77.77-.77h4.36c.42,0,.77.35.77.77v9.15c0,.23.15.39.39.39h5.52c.23,0,.39-.15.39-.39v-9.15c0-.42.35-.77.77-.77h4.36c.42,0,.77.35.77.77v25.47c0,.42-.35.77-.77.77h-4.36c-.42,0-.77-.35-.77-.77v-9.65c0-.23-.15-.39-.39-.39h-5.52c-.23,0-.39.15-.39.39v9.65c0,.42-.5.77-.93.77h-4.21c-.43,0-.77-.35-.77-.77Z"/>
      <path class="cls-3" d="m341.36,860.08c-1.7-2.24-2.08-5.79-2.08-10.61s.39-8.37,2.08-10.61c1.51-2.12,4.09-3.43,7.64-3.43s6.1,1.31,7.6,3.43c1.7,2.24,2.08,5.79,2.08,10.61s-.39,8.37-2.08,10.61c-1.51,2.12-4.05,3.43-7.6,3.43s-6.14-1.31-7.64-3.43Zm4.55-4.21c.58,1.2,1.62,1.74,3.09,1.74s2.47-.54,3.05-1.74c.62-1.31.62-3.63.62-6.41s0-5.09-.62-6.41c-.58-1.2-1.62-1.74-3.05-1.74s-2.51.54-3.09,1.74c-.58,1.31-.58,3.63-.58,6.41s0,5.09.58,6.41Z"/>
      <path class="cls-3" d="m363.24,862.2v-25.47c0-.42.35-.77.77-.77h8.49c5.09,0,8.61,3.55,8.61,8.64s-3.51,8.61-8.61,8.61h-2.97c-.23,0-.39.15-.39.39v8.61c0,.42-.35.77-.77.77h-4.36c-.43,0-.77-.35-.77-.77Zm6.29-14.78h2.89c1.51,0,2.62-1.23,2.62-2.82s-1.12-2.86-2.62-2.86h-2.89c-.23,0-.39.15-.39.39v4.9c0,.23.15.39.39.39Z"/>
      <path class="cls-3" d="m384.73,862.2v-25.47c0-.42.35-.77.77-.77h4.36c.42,0,.77.35.77.77v25.47c0,.42-.35.77-.77.77h-4.36c-.43,0-.77-.35-.77-.77Z"/>
      <path class="cls-3" d="m395.88,862.2v-25.47c0-.42.35-.77.77-.77h13.39c.42,0,.77.35.77.77v4.21c0,.42-.35.77-.77.77h-7.87c-.23,0-.39.15-.39.39v4.17c0,.23.15.39.39.39h7.49c.43,0,.77.35.77.77v4.24c0,.42-.35.77-.77.77h-7.49c-.23,0-.39.15-.39.39v9.38c0,.42-.35.77-.77.77h-4.36c-.43,0-.77-.35-.77-.77Z"/>
      <path class="cls-3" d="m420.54,862.2v-7.72l-7.49-17.4c-.27-.62.19-1.12.69-1.12h4.67c.35,0,.58.15.73.58l4.09,10.15c.08.23.46.23.54,0l4.09-10.15c.15-.42.39-.58.73-.58h4.67c.5,0,.96.5.69,1.12l-7.49,17.4v7.72c0,.42-.35.77-.77.77h-4.4c-.42,0-.77-.35-.77-.77Z"/>
      <path class="cls-3" d="m177.91,900.79v-25.47c0-.42.35-.77.77-.77h6.02c.42,0,.69.19.81.66l4.21,15.98c.08.31.5.31.58,0l4.21-15.98c.12-.46.39-.66.81-.66h6.02c.42,0,.77.35.77.77v25.47c0,.42-.35.77-.77.77h-3.97c-.43,0-.77-.35-.77-.77v-13.47c0-.39-.54-.46-.62-.08l-3.55,13.58c-.15.54-.43.73-.85.73h-3.16c-.42,0-.66-.19-.81-.73l-3.55-13.58c-.08-.39-.62-.31-.62.08v13.47c0,.42-.35.77-.77.77h-3.97c-.43,0-.77-.35-.77-.77Z"/>
      <path class="cls-3" d="m205.23,900.52l7.26-25.39c.12-.39.39-.58.73-.58h5.83c.35,0,.62.19.73.58l7.18,25.39c.12.46-.12,1.04-.69,1.04h-4.79c-.35,0-.62-.19-.73-.58l-1.24-4.13c-.08-.35-.19-.54-.54-.54h-5.87c-.27,0-.39.12-.46.43l-1.16,4.24c-.12.39-.39.58-.73.58h-4.79c-.62,0-.85-.58-.73-1.04Zm9.11-9.84h3.51c.23,0,.42-.19.35-.5l-1.81-7.49c-.08-.35-.5-.35-.62,0l-1.78,7.49c-.08.31.12.5.35.5Z"/>
      <path class="cls-3" d="m229.96,900.79v-25.47c0-.42.35-.77.77-.77h8.03c3.4,0,5.83,1.23,7.37,3.2,1.89,2.32,2.51,5.94,2.51,10.3s-.62,7.99-2.51,10.3c-1.54,1.97-3.97,3.2-7.37,3.2h-8.03c-.43,0-.77-.35-.77-.77Zm6.29-5.13h2.51c1.35,0,2.43-.58,3.13-1.81.66-1.2.73-3.51.73-5.79s-.08-4.55-.73-5.79c-.69-1.24-1.78-1.81-3.13-1.81h-2.51c-.23,0-.39.15-.39.39v14.43c0,.23.15.39.39.39Z"/>
      <path class="cls-3" d="m253.23,900.79v-25.47c0-.42.35-.77.77-.77h13.85c.42,0,.77.35.77.77v4.24c0,.42-.35.77-.77.77h-8.34c-.23,0-.39.15-.39.39v3.78c0,.23.15.39.39.39h8.03c.42,0,.77.35.77.77v4.24c0,.42-.35.77-.77.77h-8.03c-.23,0-.39.15-.39.39v4.32c0,.23.15.39.39.39h8.49c.43,0,.77.35.77.77v4.24c0,.42-.35.77-.77.77h-14.01c-.43,0-.77-.35-.77-.77Z"/>
      <path class="cls-3" d="m281.47,900.79v-25.47c0-.42.35-.77.77-.77h13.85c.42,0,.77.35.77.77v4.24c0,.42-.35.77-.77.77h-8.34c-.23,0-.39.15-.39.39v3.78c0,.23.15.39.39.39h8.03c.42,0,.77.35.77.77v4.24c0,.42-.35.77-.77.77h-8.03c-.23,0-.39.15-.39.39v4.32c0,.23.15.39.39.39h8.49c.43,0,.77.35.77.77v4.24c0,.42-.35.77-.77.77h-14.01c-.43,0-.77-.35-.77-.77Z"/>
      <path class="cls-3" d="m299.42,900.52l7.26-25.39c.12-.39.39-.58.73-.58h5.83c.35,0,.62.19.73.58l7.18,25.39c.12.46-.12,1.04-.69,1.04h-4.79c-.35,0-.62-.19-.73-.58l-1.24-4.13c-.08-.35-.19-.54-.54-.54h-5.87c-.27,0-.39.12-.46.43l-1.16,4.24c-.12.39-.39.58-.73.58h-4.79c-.62,0-.85-.58-.73-1.04Zm9.11-9.84h3.51c.23,0,.42-.19.35-.5l-1.81-7.49c-.08-.35-.5-.35-.62,0l-1.78,7.49c-.08.31.12.5.35.5Z"/>
      <path class="cls-3" d="m322.91,893.49v-.19c0-.42.35-.77.77-.77h4.59c.42,0,.77.35.77.77v.39c0,1.7,1.39,2.89,3.36,2.89s3.32-1.23,3.32-2.78-.93-2.39-2.74-2.89l-3.28-.89c-3.82-1-6.1-3.9-6.1-7.83,0-4.71,3.74-8.18,8.99-8.18s8.84,3.2,8.84,7.87v.27c0,.42-.35.77-.77.77h-4.44c-.42,0-.77-.35-.77-.77v-.27c0-1.43-1.08-2.35-2.86-2.35s-2.93.96-2.93,2.35.89,2.2,2.86,2.74l3.01.89c4.09,1.2,6.29,3.74,6.29,7.91,0,5.33-3.97,8.68-9.34,8.68s-9.57-3.4-9.57-8.61Z"/>
      <path class="cls-3" d="m350.7,900.79v-7.72l-7.49-17.4c-.27-.62.19-1.12.69-1.12h4.67c.35,0,.58.15.73.58l4.09,10.15c.08.23.46.23.54,0l4.09-10.15c.15-.42.39-.58.73-.58h4.67c.5,0,.96.5.69,1.12l-7.49,17.4v7.72c0,.42-.35.77-.77.77h-4.4c-.42,0-.77-.35-.77-.77Z"/>
    </g>
    <path id="Path_226" data-name="Path 226" class="cls-3" d="m362.17,908.55c3.04-.1,5.47.92,5.37,2.25s-2.71,2.48-5.75,2.58l-74.72,2.51c-2.95.1-5.39-.88-5.28-2.21s2.71-2.52,5.66-2.62l74.72-2.51Z"/>
    <path class="cls-2" d="m183.82,338.66s7.87-43.57-14.69-41.74c0,0-9.25.02-12.95,5.78,0,0-11.24-8.1-23.3,3.22,0,0-11.46,13.26-2.56,49.61,8.91,36.35,27.71,48.15,38.81,50.16,11.1,2.01,52.01,3.89,54.18-10.92s2.26-58.16-39.49-56.11Z"/>
    <path class="cls-3" d="m225.65,386.6c.3-10.26-.98-27.35-11.24-38.65-6.81-7.5-16.42-11.21-28.61-11.03.98-6.74,3.28-28.1-5.1-37.35-2.94-3.24-6.86-4.7-11.64-4.33-.91.01-8.95.27-13.32,5.26-3.62-1.88-13.64-5.54-24.01,4.19-.04.04-.08.08-.12.13-.49.57-11.93,14.34-2.92,51.1,4.04,16.47,10.42,29.49,18.98,38.7,8.64,9.29,16.96,11.95,21.16,12.71,3.32.6,10.92,1.36,19.49,1.36,11.56,0,24.88-1.38,31.83-6.37,2.78-2,4.4-4.46,4.82-7.32.13-.88.51-3.75.66-7.76.05-.22.06-.44.02-.65Zm-71.94-83.39c-1.44,2.24-3.54,6.76-3.37,13.8.02.91.77,1.64,1.68,1.64.01,0,.03,0,.04,0,.93-.02,1.66-.79,1.64-1.72-.21-8.8,3.61-12.97,3.69-13.06.05-.05.09-.11.14-.17.02-.03.05-.06.07-.09,3.15-4.91,11.46-5.01,11.54-5.01.04,0,.09,0,.13,0,3.76-.31,6.69.75,8.94,3.23,7.63,8.42,4.96,29.97,4.16,35.32-3.11.44-11.08,1.97-17.81,6.75-2.05-.93-7.37-3.84-8.84-9.25-.24-.89-1.16-1.42-2.06-1.18-.89.24-1.42,1.17-1.18,2.06,1.54,5.68,6.22,9.05,9.19,10.68h-9.66c-.93,0-1.68.75-1.68,1.68s.75,1.68,1.68,1.68h6.68c-.78,1.04-1.49,2.16-2.11,3.37-.42.83-.09,1.84.73,2.26.24.12.5.18.76.18.61,0,1.2-.34,1.5-.92,6.23-12.23,23.63-14.05,24.36-14.12,12.08-.59,21.51,2.73,27.99,9.86,9.45,10.4,10.67,26.35,10.39,36.09-10.64,13.28-21.66,13.23-36.84,13.13-1.09,0-2.19-.01-3.32-.02-16.03-.03-25.59-4.97-39.89-34.13-8.25-16.83-7.83-53.06-7.72-58.58,8.34-7.44,16.03-5.03,19.17-3.48Zm64.48,96.39c-10.37,7.45-39.09,6.19-48.76,4.44-12.9-2.34-29.52-16.42-37.48-48.91-5.32-21.7-3.2-34.98-.82-41.94.07,12.84,1.11,39.28,8.11,53.55,13.52,27.56,23.54,35.97,42.9,36.01,1.12,0,2.22,0,3.31.02,1.25,0,2.48.02,3.69.02,12.55,0,22.99-.84,32.84-11.03-.13,1.36-.26,2.33-.32,2.77-.29,1.95-1.42,3.61-3.46,5.08Z"/>
    <path class="cls-3" d="m176.31,338.67c-7.45.64-14.42-4.29-16.13-11.79-1.87-8.2,3.26-16.36,11.46-18.23,56.25-12.82,88.83-48.36,96.16-77.9,5.17-20.83-3.53-32.1-9.18-36.96-6.37-5.49-7.09-15.1-1.61-21.47,5.49-6.37,15.1-7.09,21.47-1.61,18.64,16.04,25.52,40.6,18.88,67.38-5.34,21.52-19.21,43.02-39.06,60.54-21.48,18.97-49.11,32.7-79.89,39.72-.7.16-1.4.27-2.1.33Z"/>
    <path class="cls-3" d="m332.35,388.7c-7.66.66-14.74-4.56-16.23-12.28-.2-1.04-21.54-105.92-93.67-137.14-7.72-3.34-11.27-12.3-7.93-20.02,3.34-7.72,12.31-11.27,20.02-7.93,86.98,37.64,110.51,154.34,111.47,159.29,1.6,8.26-3.8,16.25-12.05,17.85-.54.1-1.08.18-1.61.23Z"/>
    <g>
      <polygon class="cls-1" points="272.09 303.2 131.85 269.15 117.42 100.94 257.65 134.99 272.09 303.2"/>
      <path class="cls-3" d="m272.09,305.37c-.17,0-.34-.02-.51-.06l-140.23-34.05c-.91-.22-1.57-.99-1.65-1.92l-14.44-168.21c-.06-.7.22-1.38.75-1.83.53-.45,1.24-.63,1.92-.46l140.23,34.06c.91.22,1.57.99,1.65,1.92l14.44,168.21c.06.7-.22,1.38-.75,1.83-.4.34-.9.52-1.41.52Zm-138.2-37.96l135.78,32.97-14.05-163.65-135.78-32.98,14.05,163.65Z"/>
    </g>
    <g>
      <polygon class="cls-2" points="192.36 164.06 187.08 157.66 183.84 161.99 179.76 155.88 176.54 160.21 172.61 114.39 188.43 118.23 192.36 164.06"/>
      <path class="cls-3" d="m192.36,166.23c-.63,0-1.25-.28-1.67-.79l-3.52-4.27-1.59,2.12c-.42.56-1.09.87-1.8.87-.7-.02-1.36-.38-1.75-.96l-2.37-3.55-1.38,1.86c-.54.72-1.47,1.04-2.33.79-.87-.25-1.49-1-1.57-1.9l-3.93-45.83c-.06-.7.22-1.38.75-1.83.53-.45,1.25-.63,1.92-.46l15.82,3.84c.91.22,1.57.99,1.65,1.92l3.93,45.83c.08.95-.46,1.84-1.34,2.19-.27.11-.54.16-.82.16Zm-12.6-12.52s.04,0,.05,0c.71.02,1.36.38,1.75.96l2.37,3.56,1.4-1.87c.4-.53,1.02-.85,1.69-.87.66,0,1.3.27,1.73.79l.85,1.03-3.2-37.34-11.37-2.76,3.19,37.15c.41-.41.96-.65,1.54-.65Z"/>
    </g>
    <g>
      <polygon class="cls-1" points="404.46 245.74 272.09 303.2 257.65 134.99 390.02 77.54 404.46 245.74"/>
      <path class="cls-3" d="m272.09,305.37c-.39,0-.77-.1-1.11-.31-.6-.36-.99-.98-1.05-1.68l-14.44-168.21c-.08-.93.44-1.8,1.3-2.18l132.38-57.46c.64-.28,1.38-.23,1.97.13.6.36.99.98,1.05,1.68l14.44,168.21c.08.93-.44,1.8-1.3,2.18l-132.38,57.46c-.28.12-.57.18-.86.18Zm-12.14-169.01l14.05,163.65,128.18-55.64-14.05-163.65-128.18,55.63Z"/>
    </g>
    <g>
      <polygon class="cls-1" points="390.02 77.54 249.79 43.48 117.42 100.94 257.65 134.99 390.02 77.54"/>
      <path class="cls-3" d="m257.65,137.16c-.17,0-.34-.02-.51-.06l-140.23-34.06c-.91-.22-1.57-.99-1.65-1.92-.08-.93.44-1.8,1.3-2.18l132.38-57.46c.43-.19.91-.23,1.38-.12l140.23,34.06c.9.22,1.57.99,1.65,1.92.08.93-.44,1.8-1.3,2.18l-132.38,57.46c-.27.12-.57.18-.86.18Zm-133.44-36.81l133.24,32.36,125.78-54.59-133.24-32.36-125.78,54.59Z"/>
    </g>
    <g>
      <polygon class="cls-2" points="187.72 118.01 320.09 60.55 304.22 56.7 171.84 114.16 187.72 118.01"/>
      <path class="cls-3" d="m187.72,120.18c-.17,0-.34-.02-.51-.06l-15.87-3.85c-.91-.22-1.57-.99-1.65-1.92-.08-.93.44-1.8,1.3-2.18l132.38-57.46c.44-.19.92-.23,1.38-.12l15.87,3.85c.9.22,1.57.99,1.65,1.92.08.93-.44,1.8-1.3,2.18l-132.38,57.46c-.27.12-.57.18-.86.18Zm-9.08-6.61l8.88,2.16,125.78-54.59-8.88-2.16-125.78,54.59Z"/>
    </g>
    <g>
      <ellipse class="cls-2" cx="359.86" cy="158.91" rx="23.52" ry="40.75"/>
      <path class="cls-3" d="m359.86,200.98c-13.69,0-24.83-18.87-24.83-42.06s11.14-42.06,24.83-42.06,24.83,18.87,24.83,42.06-11.14,42.06-24.83,42.06Zm0-81.5c-12.25,0-22.21,17.69-22.21,39.44s9.96,39.44,22.21,39.44,22.21-17.69,22.21-39.44-9.96-39.44-22.21-39.44Z"/>
    </g>
    <g>
      <ellipse class="cls-2" cx="314.51" cy="171.75" rx="23.52" ry="40.75"/>
      <path class="cls-3" d="m314.51,213.81c-13.69,0-24.83-18.87-24.83-42.06s11.14-42.06,24.83-42.06,24.83,18.87,24.83,42.06-11.14,42.06-24.83,42.06Zm0-81.5c-12.25,0-22.21,17.69-22.21,39.44s9.96,39.44,22.21,39.44,22.21-17.69,22.21-39.44-9.96-39.44-22.21-39.44Z"/>
    </g>
    <path class="cls-1" d="m337.45,232.8s26.02-4.46,26.28-14.82c.45-18.51,11.45-32.68,23.62-32.89,13.54-.24,24.82,16.95,25.19,38.39.37,21.44-10.3,39.01-23.84,39.24-4.56.08-8.87-1.82-12.58-5.19l-38.67-24.73Z"/>
    <path class="cls-3" d="m388.44,264.3c-4.71,0-9.33-1.93-13.38-5.6-.65-.59-.7-1.59-.11-2.24.59-.65,1.59-.7,2.24-.11,3.53,3.2,7.54,4.87,11.49,4.78,12.64-.22,22.64-17.1,22.28-37.63-.18-10.07-2.8-19.48-7.4-26.48-4.45-6.78-10.23-10.43-16.18-10.35-11.75.21-21.65,14.27-22.07,31.35-.28,11.34-24.8,15.86-27.59,16.34-.86.16-1.68-.43-1.83-1.29-.15-.86.43-1.68,1.29-1.83.06-.01,6.47-1.13,12.8-3.46,7.76-2.87,12.08-6.36,12.16-9.84.46-18.75,11.75-34.2,25.18-34.43,7.11-.17,13.82,4.06,18.88,11.78,4.92,7.5,7.73,17.5,7.92,28.16.39,22.27-11,40.6-25.39,40.85-.1,0-.2,0-.3,0Z"/>
    <ellipse class="cls-3" cx="390.1" cy="225.57" rx="13.04" ry="21.83" transform="translate(-3.88 6.84) rotate(-1)"/>
    <path class="cls-3" d="m350.63,110.51c9.86-2.14,19.82,1.1,26.48,8.71,1.96,2.25,5.48-.77,3.51-3.01-7.71-8.82-19.43-12.73-30.89-10.24-2.91.63-2.02,5.18.9,4.54h0Z"/>
    <path class="cls-3" d="m286.91,149.78c2.67-16.9,17.27-29.1,34.51-28.15,2.94.16,3.81-4.39.84-4.55-19.69-1.07-36.81,12.25-39.91,31.86-.46,2.94,4.09,3.79,4.55.84h0Z"/>
    <path class="cls-3" d="m429.02,181.63c-.64-1.21-2.44-4.41-4-7.11l-3.05-5.26c-1.56-2.7-.31-5.21,2.78-5.59l1.95-.24c3.09-.38,4.29-2.86,2.65-5.51l-1.86-3.01c-1.64-2.65-5.51-4.5-8.6-4.11l-5.73.73c-3.09.39-4.26,2.87-2.59,5.5l9.62,15.18c1.67,2.63,2.98,4.78,2.91,4.78h-.06c-3.3,0-5.97,2.67-5.97,5.97s2.67,5.97,5.97,5.97,5.97-2.67,5.97-5.97v-1.32Z"/>
    <path class="cls-3" d="m447.04,193.47c-2.48-1.89-4.93-.91-5.44,2.16l-1.6,9.65c-.51,3.08-2.48,4.15-4.37,2.38h-2.48c-3.9,0-7.06,3.16-7.06,7.06s3.16,7.06,7.06,7.06c3.7,0,4.43-1.42,4.43-1.42,1.43-2.77,3.08-7.53,3.68-10.58s2.78-4.15,4.87-2.45,4.41.62,5.17-2.4l.36-1.42c.76-3.02-.65-7.04-3.14-8.93l-1.47-1.11Z"/>
    <path class="cls-3" d="m379.4,183.8c1.42-3.31,3.7-11,5.05-17.09,0,0,.24-1.08.24-7.94,0-17.76-8.83-29.49-8.83-29.49-3.75-4.98-10.75-5.8-15.55-1.81,0,0-3.83,3.18-7.22,12.12l11.3,11.2c4.43,4.39,2.95,7.98-3.29,7.98h-.07c-6.24,0-11.29,1.02-11.24,2.27s.71,9.71,1.2,15.93c0,0,1.24,15.81,7.5,22.63,1.68,1.83,2.26,1.54,2.26,1.54,5.59-2.76,17.23-14.03,18.65-17.34Z"/>
    <path class="cls-3" d="m333.05,199.24c.88-4.72,2.7-13.56,4.06-19.65,0,0,.34-1.52.34-8.64,0-18.41-9.41-30.9-9.41-30.9-3.75-4.98-10.75-5.8-15.55-1.81,0,0-4.29,3.56-7.8,12.83l12,11.9c4.43,4.39,2.95,7.98-3.29,7.98h-.9c-6.24,0-11.28,1.06-11.22,2.36s.55,9.88.86,16.11c0,0,.59,12.29,7.57,21.77,1.66,2.26,2.29,2.07,2.29,2.07,5.99-1.75,20.16-9.3,21.04-14.02Z"/>
    <path class="cls-2" d="m406.28,340.28c-.75,7.14-2.89,13.81-6.27,19.95-2.29,4.17-4.85,8.18-7.41,12.16-3.86,5.98-7.37,12.18-10.34,18.75-.86,1.92-1.72,3.86-2.62,5.76-4.79,10.18-11.98,17.26-21.71,21.2-.28.12-.55.23-.83.33-.84.32-1.67.59-2.52.84-.37.11-.75.22-1.13.32-.37.09-.75.18-1.12.27-.37.08-.74.16-1.12.23-.34.07-.68.12-1.02.18-.42.07-.83.14-1.25.19-.36.05-.72.08-1.08.12-.02,0-.04,0-.06,0-.38.04-.76.07-1.14.1-.28.02-.56.04-.85.04-.34.02-.67.03-1.02.03-.34.01-.68.01-1.02,0-1.33,0-2.66-.07-4.01-.2-3.16-.31-6.06-1.55-8.39-3.88-3.38-3.37-6.21-7.27-8.09-11.94-2.69-6.67-4.78-13.58-5.73-20.88-.64-4.83-2.06-9.37-3.87-13.76-1.6-3.88-1.64-3.85-5.14-5.34-.31-.12-.63-.22-.93-.37-7.42-3.72-10.69-10.51-8.53-19.43,1.81-7.52,5.8-13.43,11.29-18.15,4.32-3.7,9.13-6.35,14.29-8.28,2.64-.99,5.31-1.3,8.01-1.13,2.59.16,4.63,1.52,5.85,4.14.48,1.03.86,2.1,1.1,2.69-2.02,4.77-3.99,9.05-5.66,13.48-1.06,2.78-1.75,5.74-2.41,8.66-.32,1.45-.48,3.03.23,4.43.18.04.35.08.54.13.2-.57.44-1.12.62-1.7,1.19-3.92,2.23-7.9,3.61-11.74,2.63-7.34,6.06-14.19,11.01-20,4.94-5.81,10.74-10.11,17.81-11.64,13.72-2.96,25.3,1.68,34.71,12.55,1.73,2,3.1,4.17,4.12,6.5.3.68.57,1.38.8,2.09.09.26.17.51.25.77.36,1.19.63,2.4.84,3.65.04.25.08.5.11.74.1.77.17,1.53.22,2.31.01.26.03.51.04.78.03.83.03,1.67,0,2.51,0,.25-.02.51-.04.76-.03.58-.08,1.15-.14,1.74Z"/>
    <path class="cls-2" d="m403.93,326.12c-1.4-1.58-3.01-2.94-4.7-4.05.07.19.13.41.16.66-.79-.34-1.52-.63-2.22-.93,1.4.68,3.69,1.89,6.75,4.32Zm-46.84,92.31c-.84.32-1.67.59-2.52.84.84-.24,1.68-.53,2.52-.84Z"/>
    <path class="cls-3" d="m334.19,331.41l-.03-.19c-.09-.62-.63-1.07-1.24-1.07-.04,0-.07,0-.11,0-.2.02-.39.03-.59.04-.51.03-1.05.06-1.6.17-4.53.94-8.65,3.4-12.63,7.53-3.42,3.56-5.99,7.86-7.63,12.77-.04.12-.08.23-.12.34-.36,1.03-.9,2.6.34,4.13.24.3.61.47.98.47.17,0,.34-.03.5-.1,1.37-.6,1.65-1.85,1.81-2.6.03-.14.06-.27.1-.4,1.12-3.9,2.87-7.38,5.21-10.34,3.75-4.73,7.9-7.52,12.69-8.5.44-.09.82-.26,1.16-.41.13-.06.27-.12.4-.17.55-.21.88-.77.8-1.35l-.04-.3Z"/>
    <path class="cls-3" d="m409.59,333.13c-.84-7.74-3.96-14.35-9.27-19.63-6.88-6.83-14.95-10.79-24-11.77-11.39-1.23-21.53,2.95-30.1,12.43-1.43,1.59-2.71,3.29-4.06,5.09-.33.44-.66.88-1,1.33-1.08-2.47-2.72-4.24-4.87-5.28-2.16-1.06-4.41-.94-6.58-.83-.59.03-1.18.06-1.78.07-.08,0-.16.01-.24.04-.59.19-14.63,4.61-19.87,10.52l-.64.65c-.47.47-.91.92-1.35,1.38-4.83,5.16-7.93,10.71-9.48,16.98-2.57,10.44,1.09,19.04,10.04,23.6.92.47,1.88.77,2.9,1.08.35.11.72.22,1.1.35.36,1.28.75,2.57,1.14,3.88,1.2,3.99,2.44,8.12,3.03,12.44.91,6.57,2.88,13.3,6.01,20.56,2.33,5.38,5.78,10.12,10.28,14.06,3.17,2.78,7.08,4.16,11.96,4.23.26,0,.51,0,.76,0,5.79,0,10.95-.96,15.73-2.93,10.35-4.27,17.96-11.59,22.62-21.77,5.08-11.08,11.07-21.85,17.79-32.02,3.73-5.64,6.5-11.78,8.24-18.22,1.66-6.11,2.18-11.26,1.64-16.23Zm-6.84-9.28c.24.46.47.93.68,1.41.27.61.53,1.28.78,2.03.04.11.07.21.1.32-2.85-4.3-7.16-8.99-13.13-10.98-6.48-2.15-13.6-.65-21.15,4.46-25.4,17.19-29.54,39.68-29.82,41.38-.29,1.07-4.29,15.74-9.33,27.37-2.46,5.68-4.19,9.96-5.02,13.65.07-4.61,2.68-11.78,5.51-19.63,4.26-11.84,4.22-11.69,4.26-11.84.02-.06,4.3-14.19,4.32-14.25,4-10.73,5.74-26.64,29.28-39.36,6.5-3.52,12.86-6.95,20.45-4.93,6.34,1.69,10.52,6.37,13.05,10.37Zm-84.36,59.91c-.59-4.45-1.84-8.89-3.93-13.97-1.65-3.99-1.85-4.21-5.47-5.74l-.14-.06c-.11-.04-.23-.09-.34-.13-.18-.06-.35-.13-.52-.21-7.22-3.62-10.1-10.19-8.09-18.49,1.68-6.99,5.29-12.78,11.02-17.71,4.03-3.45,8.62-6.11,14.04-8.13,2.41-.9,4.91-1.25,7.66-1.08,2.35.14,4.08,1.37,5.14,3.66.35.74.65,1.53.87,2.11l.08.21c-.58,1.37-1.16,2.7-1.72,4-1.37,3.15-2.66,6.12-3.81,9.19-1.04,2.74-1.72,5.59-2.44,8.78-.29,1.3-.58,3.24.29,4.99.12.23.33.39.58.45.14.03.28.06.5.12.42.11.85-.13.99-.53.08-.21.15-.42.23-.62.14-.37.28-.73.4-1.11.38-1.25.74-2.5,1.11-3.75.77-2.63,1.56-5.35,2.49-7.95,2.91-8.12,6.47-14.58,10.86-19.74,5.34-6.28,11.02-9.99,17.35-11.36,8.3-1.79,15.95-.75,22.86,3.09-6.58-1.11-13.65.85-21.05,5.86-25.43,17.21-27.4,35.35-30.33,42.85-.46,1.17-3.98,14.55-8.97,26.09-2.68,6.19-4.74,11.41-5.35,16.32-2.18-5.99-3.6-11.62-4.32-17.13Zm87.22-46.01h0c0,.25-.02.5-.03.75-.03.57-.08,1.13-.14,1.7-.72,6.91-2.8,13.51-6.17,19.63-2.28,4.15-4.79,8.1-7.38,12.11-4.18,6.47-7.58,12.64-10.4,18.87l-.4.9c-.71,1.59-1.45,3.24-2.21,4.84-4.69,9.97-11.85,16.96-21.27,20.79-.27.11-.53.22-.81.32-.76.29-1.57.56-2.46.82-.36.11-.73.21-1.09.31l-1.11.27c-.36.08-.73.16-1.1.23-.34.07-.66.12-.99.18-.4.07-.81.13-1.22.18-.3.04-.61.07-.91.1h-.13s-.04.02-.06.02c-.37.03-.75.07-1.11.09-.27.02-.54.03-.85.04-.32.02-.64.03-.99.03-.33.01-.65.01-1,0-1.27,0-2.58-.06-3.92-.2-3.11-.3-5.77-1.53-7.88-3.64-1.28-1.27-2.42-2.57-3.44-3.91-1.63-5.15.61-11.96,4.67-21.34,5.27-12.19,9.42-27.63,9.46-27.78.01-.04.02-.09.03-.13,0-.06.94-5.77,4.94-13.5,3.68-7.12,10.81-17.45,23.82-26.26,6.87-4.65,13.24-6.05,18.94-4.16,8.54,2.83,13.51,12.35,15.23,16.28,0,0,0,0,0,0,.03.78.03,1.61,0,2.44Z"/>
    <g>
      <path class="cls-3" d="m169.47,250.46c-.33-.07-.7-.42-.82-.77,0,0-4.42-13.14-16.4-15.61-10.81-2.23-13.72,7.5-13.72,7.5-.09.29.11.59.44.67l8.63,1.94c.33.07.6-.14.6-.47,0,0,0-4.06,5.01-3.03,6.09,1.26,6.91,7.08,6.91,7.08.05.35-.18.57-.51.49l-3.49-.78c-.33-.07-.44.14-.25.48l3.4,5.92c.19.34.62.67.95.75l8.99,2.02c.33.07.71-.08.84-.34l2.27-4.67c.13-.26-.04-.54-.37-.61l-2.47-.55Z"/>
      <path class="cls-3" d="m160.43,256.12c-.33-.07-.61.13-.62.47,0,0-.1,4.56-4.94,3.56-6.05-1.25-6.97-7.7-6.97-7.7-.05-.35.18-.57.51-.49l3.56.8c.33.07.44-.14.25-.48l-3.38-5.83c-.19-.34-.63-.67-.96-.75l-8.99-2.02c-.33-.07-.7.08-.83.35l-2.14,4.6c-.12.27.05.55.38.62l2.26.51c.33.07.7.42.81.77,0,0,4.55,13.77,16.46,16.23,10.51,2.17,13.58-8.05,13.58-8.05.09-.29-.11-.59-.44-.67l-8.55-1.92Z"/>
    </g>
    <g id="Group_24" data-name="Group 24">
      <path id="Path_25" data-name="Path 25" class="cls-3" d="m187.09,244.06c.34.72.22,1.22-.27,1.11l-.37-.11c-.36-.1-.5.05-.44.49l.02.17c0,.19.06.95.12,1.7l1.33,18.33.14,1.86c.02.28-1.22.19-1.78.05s-2.21-.56-2.41-.67-.46-1.5-.51-2.25c0,0-.91-12.72-1.43-19.76-.09-1.27-.01-1.13-1-1.37l-.22-.05c-.33-.08-.39-.61-.13-1.18l2.55-5.56c.08-.35.39-.47.71-.26.18.12.32.32.4.55l3.29,6.95Z"/>
      <path id="Path_26" data-name="Path 26" class="cls-3" d="m190.35,245.99c-.13-.05-.03-.55.23-1.12l2.53-5.51c.08-.35.39-.47.71-.26.18.12.32.32.4.55l3.3,6.95c.34.72.44,1.28.21,1.23-.35-.08-.7-.14-1.04-.18-.15.02-.19,1.17-.13,1.92l.42,5.64c.05.75.14,1.97.19,2.72l.77,10.48c.06.77.07,1.54.05,2.28l-.59-.17c-1.09-.32-2.16-.55-2.16-.55-.47-.09-.94-.23-1.41-.42-.18-.1-.41-1.38-.46-2.13l-1.33-18.32c-.05-.75-.1-1.66-.11-2.02s-1.43-1.03-1.56-1.08"/>
      <path id="Path_27" data-name="Path 27" class="cls-3" d="m179.89,268.35c-.06-.75.01-1.33.16-1.3l1.57.38,18.03,4.36c.5.11,1,.26,1.5.44.22.09.47,1.55.51,2.29,0,0,.08,1.37.21,2.75l.05.52c-.54-.03-1.09-.11-1.64-.25l-18.44-4.48c-.55-.13-1.11-.31-1.67-.53l-.03-.53c-.09-1.63-.25-3.66-.25-3.66"/>
    </g>
    <path class="cls-3" d="m160.72,118.43c-1.25-.01-1.77.75-1.66,1.88.12,1.25.8,2.05,2.18,2.04.16-.03.31-.07.45-.11.4-.99.76-1.91,1.09-2.72-.34-.73-1.09-1.08-2.06-1.09Z"/>
    <path class="cls-3" d="m120.49,103.92l-.66-.16.02.28c.23,0,.44-.05.63-.12Z"/>
    <path class="cls-3" d="m120.61,112.78l.27,3.12c.34-.39.49-.97.53-1.6-.04-.78-.32-1.28-.8-1.53Z"/>
    <path class="cls-3" d="m155.27,116.49c1.35.02,1.36-1.05,1.41-1.98-.06-1.12-.48-1.89-1.71-1.85-1.26.05-1.61.89-1.49,1.96.12,1.03.65,1.86,1.79,1.88Z"/>
    <path class="cls-3" d="m143.43,116.37c.95-.16,1.35-.89,1.43-1.76.11-1.09-.25-1.89-1.3-1.96-1.14-.04-1.74.48-1.85,1.42-.15,1.25.74,2.46,1.72,2.29Z"/>
    <path class="cls-3" d="m131.81,116.51c1.37.06,1.7-1.09,2.01-2.36-.24-.91-.91-1.48-1.97-1.53-1.11-.06-1.85.41-1.86,1.63,0,1.23.52,2.2,1.82,2.26Z"/>
    <path class="cls-3" d="m126.02,110.62c1.04.04,1.26-.86,1.3-1.72.05-1.26-.36-2.15-1.86-2.16-.95.13-2.01.44-1.91,1.62.11,1.35,1.11,2.21,2.47,2.26Z"/>
    <path class="cls-3" d="m137.98,110.51c.95.16,1.55-.41,1.67-1.45-.04-.17-.09-.35-.13-.52l-3.37-.82c-.15.29-.23.65-.2,1.04.07,1.16,1.08,1.59,2.04,1.75Z"/>
    <path class="cls-3" d="m138.23,159.04c1.18-.44,1.54-1.48,1.48-2.61-.04-.78-.71-1.12-1.5-1.09-1.28.05-1.65.87-1.53,1.97.09.87.45,1.6,1.54,1.73Z"/>
    <path class="cls-3" d="m155.1,128.29c1.05,0,2.03-.34,2.1-1.5.07-1.26-.91-1.89-1.98-2.3-1.22.08-1.69.87-1.76,1.92-.07,1.11.4,1.88,1.64,1.88Z"/>
    <path class="cls-3" d="m149.23,134.78c1.19-.29,1.53-1.13,1.52-2.17-.01-1.23-.77-1.72-1.89-1.62-1.03.09-2.02.57-1.84,1.75.16,1.14,1,1.9,2.21,2.04Z"/>
    <path class="cls-3" d="m143.43,140.62c.94-.17,1.34-.89,1.43-1.76.11-1.08-.25-1.89-1.3-1.95-1.14-.04-1.74.48-1.85,1.43-.15,1.25.74,2.46,1.72,2.28Z"/>
    <path class="cls-3" d="m143.35,128.2c.75-.24,1.48-.81,1.46-1.94-.01-.9-.47-1.68-1.44-1.7-1.22-.02-1.61.92-1.67,1.96-.05.91.26,1.64,1.65,1.69Z"/>
    <path class="cls-3" d="m142.93,152.54c1.2-.1,2.2-.77,2.41-1.9.27-1.48-1.1-1.71-2.15-1.89-1.04-.17-1.46.59-1.52,1.51-.07.99-.04,1.97,1.26,2.27Z"/>
    <path class="cls-3" d="m137.68,130.21c-1.25.26-2.01,1.06-1.71,2.37.25,1.12.98,1.95,2.16,2.13.8-.13,1.87-2.59,1.57-3.58-.31-1.02-1.16-1.1-2.01-.93Z"/>
    <path class="cls-3" d="m137.55,142.75c-1.23-.02-1.79.7-1.7,1.85.1,1.25.77,2.13,2.13,2.06,1.14-.06,1.69-.83,1.83-1.93-.18-1.31-.97-1.96-2.26-1.98Z"/>
    <path class="cls-3" d="m153.49,138.1c-.21.97.52,2.1,1.43,2.31.4-1.15.8-2.28,1.19-3.37-.23-.1-.48-.16-.75-.17-.9-.04-1.65.23-1.87,1.24Z"/>
    <path class="cls-3" d="m149.51,122.29c1.04.02,1.25-.85,1.3-1.72,0-1.02-.17-1.96-1.41-2.09-1.16-.13-1.81.47-1.8,1.65.02,1.24.59,2.15,1.91,2.17Z"/>
    <path class="cls-3" d="m147.61,156.95c0,.98.51,1.6,1.3,1.81.34-1.11.68-2.21,1.02-3.29-.23-.1-.51-.15-.85-.13-1,.04-1.47.65-1.46,1.61Z"/>
    <path class="cls-3" d="m149.36,142.79c-1.23-.12-1.77.61-1.81,1.76-.04,1.05.16,2.01,1.44,2.14,1.24.12,1.75-.62,1.81-1.76.02-1.05-.16-2.01-1.44-2.13Z"/>
    <path class="cls-3" d="m127.41,191.96l.16,1.9c.15-.29.28-.61.38-.96-.11-.37-.3-.69-.55-.93Z"/>
    <path class="cls-3" d="m131.88,176.84c1.33,0,1.83-1.13,1.85-2.26.02-1.18-.94-1.52-1.91-1.64-1.18,0-1.86.51-1.83,1.7.03,1.24.6,2.21,1.89,2.2Z"/>
    <path class="cls-3" d="m132.18,148.71c-1.36-.14-2.04.72-2.2,1.95-.13.99.02,1.95,1.16,2.38,1.44-.14,2.24-1.06,2.56-2.35.3-1.2-.42-1.86-1.52-1.98Z"/>
    <path class="cls-3" d="m131.77,165.03c.88-.38,1.88-.94,1.94-2.17.06-1.2-.92-1.6-1.94-1.66-1.16-.07-1.82.53-1.79,1.72.03,1.04.4,1.87,1.79,2.11Z"/>
    <path class="cls-3" d="m132.05,185.47c-1.32-.05-2.16.49-2.08,1.89.06,1.01.5,2.05,1.69,1.89,1.33-.18,2.21-1.18,2.19-2.56-.02-1.03-.94-1.2-1.8-1.22Z"/>
    <path class="cls-3" d="m131.81,201.13c1.08.04,1.35-.77,1.38-1.65.03-.99-.02-1.97-1.57-2.14-.83.23-1.58.79-1.57,1.91,0,1.08.62,1.84,1.76,1.88Z"/>
    <path class="cls-3" d="m132.16,209.78c-1.28-.04-2.23.37-2.17,1.84.04,1.04.45,2.09,1.65,1.95,1.48-.17,1.91-1.52,2.02-2.76.08-.85-.79-.97-1.5-1.03Z"/>
    <path class="cls-3" d="m132.37,249.74c.28-.08.5-.22.67-.42,0-1,.02-2,.04-3-.28-.21-.63-.34-1.04-.39l.33,3.8Z"/>
    <path class="cls-3" d="m143.03,173.07c-1.35.01-1.39,1.09-1.36,2.08.02.89.29,1.64,1.68,1.69.17-.05.33-.12.49-.21.24-.92.48-1.83.72-2.73-.28-.52-.8-.84-1.53-.83Z"/>
    <path class="cls-3" d="m138,167.16c-1.35.16-1.41,1.14-1.37,2.13.04.88.31,1.69,1.39,1.65,1.15-.05,1.76-.82,1.76-1.9,0-1.09-.67-1.75-1.78-1.88Z"/>
    <path class="cls-3" d="m143.21,161.23c-1.01.05-1.5.65-1.46,1.63.04,1.02.65,1.49,1.63,1.46,1.04-.03,1.47-.64,1.47-1.8-.12-.81-.63-1.35-1.64-1.3Z"/>
    <path class="cls-3" d="m136.63,204.9c-.01.73-.03,1.57.55,1.91.21-1.18.42-2.37.64-3.54-.92.12-1.18.8-1.2,1.63Z"/>
    <path class="cls-3" d="m138.52,191.43c-1.16-.12-1.87.45-1.84,1.66.03,1.03.36,2.1,1.59,1.95,1.1-.13,1.28-1.28,1.41-1.86.12-1.25-.41-1.68-1.16-1.75Z"/>
    <path class="cls-3" d="m132.13,225.5c1.14-.07,1.69-.84,1.8-1.94-.2-1.29-.99-1.94-2.27-1.96-.92-.01-1.45.39-1.62,1.06l.14,1.68c.3.76.93,1.22,1.94,1.16Z"/>
    <path class="cls-3" d="m133.1,235.65c-.04-1.03-.65-1.47-1.89-1.46-.06.01-.12.03-.18.05l.26,3.05c.11.01.23.01.36,0,1.02-.05,1.49-.66,1.45-1.65Z"/>
    <path class="cls-3" d="m137.82,182.66c1.2.11,1.48-1.03,1.82-1.93.03-1-.46-1.63-1.4-1.77-1.03-.16-1.54.47-1.6,1.44-.07.98-.12,2.15,1.18,2.27Z"/>
    <path class="cls-3" d="m138,122.34c1.06-.28,1.54-1.1,1.41-2.15-.08-.68-.3-1.5-.82-1.89h-1.59c-.69.38-1.08,1.17-.9,2.12.18.93.61,1.87,1.9,1.92Z"/>
    <path class="cls-3" d="m127.94,181.03c-.36-.73-.77-1.57-1.63-1.85l.32,3.72c.64-.3,1.14-.87,1.31-1.87Z"/>
    <path class="cls-3" d="m125.44,142.77c-1.02.06-1.39.89-1.38,1.97,0,1.07.33,1.96,1.63,1.96,1.3,0,1.63-.89,1.63-1.96,0-1.08-.34-1.93-1.88-1.97Z"/>
    <path class="cls-3" d="m125.5,118.46c-1.28.12-1.48,1.09-1.44,2.14.04,1.15.57,1.89,1.81,1.77,1.29-.12,1.46-1.09,1.45-2.14-.06-1.15-.58-1.88-1.82-1.77Z"/>
    <path class="cls-3" d="m127.28,157.23c.02-1.17-.41-1.92-1.65-1.92-.49,0-.97.08-1.35.29l.27,3.11c.29.18.63.3.99.35,1.19.16,1.57-.85,1.74-1.83Z"/>
    <path class="cls-3" d="m125.76,134.73c1.16-.06,1.5-1.05,1.5-2.1,0-1.23-.75-1.67-2.08-1.65-.77.21-1.83.53-1.66,1.75.16,1.14.99,2.06,2.24,2Z"/>
    <path class="cls-3" d="m127.32,169.07c.01-.86-.15-1.71-1.18-1.91-.25-.05-.55,0-.86.13l.31,3.65s.06.02.09.03c1.38.05,1.62-.86,1.63-1.9Z"/>
    <path class="cls-3" d="m131.6,124.54c-1.17-.01-1.58.93-1.63,1.96-.06,1.14.51,1.78,1.72,1.8,1.21-.07,2.18-.63,2.17-1.92,0-1.33-1.13-1.83-2.27-1.84Z"/>
    <path class="cls-3" d="m131.86,136.86c-1.18-.01-1.88.46-1.87,1.67,0,1.03.34,2,1.49,2.09,1.16.09,2.25-.44,2.38-1.71.14-1.32-.84-1.88-2-2.04Z"/>
    <path class="cls-3" d="m371.56,407.19c1.3.18,2.09-.82,2.32-1.9.25-1.17-.71-1.7-1.75-1.82-1.1-.13-1.88.29-1.98,1.58,0,.98.27,1.98,1.41,2.13Z"/>
    <path class="cls-3" d="m365.51,401.28c1.51.34,2.14-.91,2.67-2.01.2-1.33-.65-1.83-1.6-2.17-1.1-.38-2.71.58-2.87,1.73-.18,1.34.71,2.2,1.8,2.45Z"/>
    <path class="cls-3" d="m335.85,415.34c-1.31.14-1.79,1.11-1.75,2.33.04,1.22.84,1.65,1.92,1.54,1.03-.1,1.79-.59,1.87-1.95-.43-.78-.59-2.07-2.05-1.91Z"/>
    <path class="cls-3" d="m335.27,395.35c1.12-.24,2.35-.57,2.53-1.78.22-1.43-.89-2.27-2.15-2.55-1.43-.32-1.96.88-2.16,1.94-.23,1.26.67,1.97,1.77,2.39Z"/>
    <path class="cls-3" d="m335.59,407.19c1.21.07,1.53-.91,1.68-1.92-.02-1.14-.52-1.83-1.73-1.78-1,.05-1.45.68-1.45,1.62,0,1.04.33,2.01,1.5,2.08Z"/>
    <path class="cls-3" d="m360.35,415.31c-1.3-.09-2.79,1.1-2.67,2.14.04.37.16.68.34.92,1.28-.61,2.48-1.23,3.57-1.81-.09-.62-.38-1.11-1.23-1.25Z"/>
    <path class="cls-3" d="m341.62,401.31c1.18-.07,1.47-1.04,1.52-2.06-.04-.96-.46-1.58-1.46-1.63-1.22-.06-1.77.63-1.71,1.77.05,1.02.44,1.99,1.65,1.93Z"/>
    <path class="cls-3" d="m341.77,413.21c1.35.02,1.36-1.05,1.42-2.13-.1-.96-.49-1.75-1.72-1.71-1.26.05-1.61.89-1.49,1.96.12,1.03.65,1.86,1.79,1.88Z"/>
    <path class="cls-3" d="m331.38,411.19c.01-.99-.33-1.71-1.32-1.8-1.43-.14-1.92.74-1.91,2.02.01.86.21,1.77,1.22,1.81,1.33.06,1.88-.87,2.01-2.03Z"/>
    <path class="cls-3" d="m329.92,402.03c1.01.23,2.08-1,1.97-2.12-.12-1.19-.93-1.45-2.03-1.5l-1.11,3.05c.31.27.7.47,1.17.58Z"/>
    <path class="cls-3" d="m359.86,394.84c1.26.08,1.7-.7,1.77-1.82,0-.35-.03-.69-.11-.99-1.05.26-2.09.47-3.14.62,0,.04,0,.07,0,.11-.02,1.05.19,2,1.49,2.09Z"/>
    <path class="cls-3" d="m360.16,407.22c1.24-.21,1.77-1.35,1.81-2.44.04-1.04-.72-1.7-1.76-1.74-1.27.14-2.48,1.58-2.16,2.61.31.97,1.03,1.75,2.11,1.57Z"/>
    <path class="cls-3" d="m377.95,397.72c-1.04.13-1.18,1.06-1.14,1.92.03.83.09,1.82,1.3,1.63.22-.04.43-.09.63-.17.42-.51.82-1.01,1.19-1.5,0-.09.02-.17.02-.27-.21-1.06-.87-1.75-1.99-1.61Z"/>
    <path class="cls-3" d="m378.09,388.73c1.42.05,1.57-1.26,1.85-2.22,0-1.17-.69-1.52-1.62-1.49-.3,0-.57.05-.83.13-.28.17-.57.34-.86.5-.31.32-.5.75-.5,1.33,0,1.16,1.01,1.72,1.96,1.75Z"/>
    <path class="cls-3" d="m372.17,394.82c1.08.02,1.75-.67,1.93-1.8-.15-1.34-1.13-1.82-2.28-1.89-.96-.06-1.51.65-1.58,1.55-.1,1.33.65,2.12,1.93,2.14Z"/>
    <path class="cls-3" d="m366.05,409.33c-1.33-.07-2.07.68-2.17,1.91-.08,1.02,1.52,2.19,2.63,2.02,1.1-.16,1.62-.89,1.73-1.95-.17-1.28-.94-1.91-2.19-1.98Z"/>
    <path class="cls-3" d="m354.17,412.84c.86-.18,1.52-.69,1.46-1.81-.23-1.01-.88-1.72-2.02-1.55-1.05.15-1.19,1.05-1.06,1.93.13.89.55,1.65,1.62,1.43Z"/>
    <path class="cls-3" d="m348.13,407.17c1.18-.18,1.31-1.25,1.59-2.08.08-1.13-.58-1.7-1.88-1.68-.86.01-1.71.15-1.91,1.18-.19,1,1.26,2.72,2.2,2.58Z"/>
    <path class="cls-3" d="m340.96,389.17c.68-.13.76-.9.92-1.5.04-.81-.33-1.22-1.09-1.21-.5,0-.99.11-1.11.85-.11.72.73,1.96,1.27,1.86Z"/>
    <path class="cls-3" d="m384.29,382.73c.68-.13.76-.9.92-1.5.04-.81-.33-1.22-1.09-1.21-.5,0-.99.11-1.11.85-.11.72.73,1.96,1.27,1.86Z"/>
    <path class="cls-3" d="m345.9,392.79c-.02,1.22.64,2.33,1.84,2.42,1.25.09,1.81-1.05,2.05-2.2-.04-.21-.1-.39-.16-.56-1.07-.25-2.12-.59-3.13-1.03-.38.3-.58.81-.59,1.37Z"/>
    <path class="cls-3" d="m341.61,421.91c-.56,0-.97.16-1.24.45.97.18,1.98.29,3.01.29-.39-.54-1.02-.74-1.77-.74Z"/>
    <path class="cls-3" d="m347.83,419.14c1.25-.04,2.06-.82,1.91-2.12-.14-1.28-1.01-1.92-2.3-1.68-1.07.2-1.57.97-1.54,2.1.19,1.06.86,1.74,1.92,1.71Z"/>
    <path class="cls-3" d="m354.14,401.31c1.15-.51,1.52-1.53,1.41-2.68-.07-.81-.78-1.08-1.55-1.02-1.29.1-1.59.96-1.45,2.04.12.87.49,1.59,1.58,1.65Z"/>
    <path class="cls-3" d="m382,393c.06.71.34,1.36.78,1.81.51-1.15,1.05-2.49,1.59-3.92-.13-.01-.26-.02-.4-.01-1.16.19-2.09.79-1.97,2.13Z"/>
  </g>
</svg>